<svg xmlns="http://www.w3.org/2000/svg" viewBox="0 0 125 108"><defs><style>.cls-2{fill:#09212c}.cls-3{fill:#03ff2d}.cls-4,.cls-5,.cls-6,.cls-8{fill:none;stroke-linecap:round}.cls-4{stroke:#5eff00}.cls-4,.cls-5,.cls-6{stroke-miterlimit:10}.cls-5{stroke:#d3e4eb;stroke-width:.8px}.cls-6{stroke:#09212c}.cls-8{stroke:#19ee3a;stroke-linejoin:round;stroke-width:1.2px}</style></defs><g id="Language_Icons" data-name="Language Icons"><circle cx="63.78" cy="61.16" r="46.84" fill="#4e7089" opacity=".5"/><circle class="cls-2" cx="89.64" cy="10.41" r="1.04"/><circle class="cls-2" cx="15.35" cy="28.2" r="1.04"/><circle class="cls-3" cx="64.09" cy="14.42" r="1.68"/><circle class="cls-3" cx="17.08" cy="61.01" r="1.68"/><circle class="cls-3" cx="110.76" cy="61.01" r="1.68"/><path class="cls-4" d="M4.91 39h5.46M7.64 41.73v-5.46M117.86 78.38h5.46M120.59 81.11v-5.46M45.38 2v1.4M45.38 6.98v1.4M48.63 5.25h-1.4M43.62 5.25h-1.41M47.72 2.9l-.99 1M47.72 7.47l-.99-.99M43.02 2.9l.99 1M43.02 7.47l.99-.99"/><circle class="cls-4" cx="98.83" cy="9.55" r="2.1"/><path class="cls-5" d="M98.17 18.27h5.46M100.9 21v-5.46M122.07 64.79v1.13M122.07 68.81v1.14M124.7 67.42h-1.13M120.65 67.42h-1.13M123.97 65.52l-.81.8M123.97 69.21l-.81-.8M120.17 65.52l.8.8M120.17 69.21l.8-.8"/><circle class="cls-5" cx="2.8" cy="30.3" r="2.1"/><path class="cls-6" d="M17.67 53.39a46.79 46.79 0 0138.59-38.75M110.16 68.28a46.88 46.88 0 01-92.61-1M71.51 14.77A46.78 46.78 0 01110.32 54"/><rect x="36" y="44.54" width="55.56" height="38.56" rx="1.7" fill="#002f4f"/><path class="cls-8" d="M43.48 53.5l2.79 2.9-2.79 2.78M48.05 60.06h4.18"/></g></svg>