<svg xmlns="http://www.w3.org/2000/svg" viewBox="0 0 125 108"><defs><style>.cls-1{fill:#4e7089;opacity:.5}.cls-2{fill:#164460}.cls-3,.cls-4,.cls-5{fill:none;stroke-linecap:round}.cls-3{stroke:#ffc200}.cls-3,.cls-4,.cls-5,.cls-6{stroke-miterlimit:10}.cls-4{stroke:#d3e4eb;stroke-width:.8px}.cls-5{stroke:#164460}.cls-6{fill:#002f4f;stroke-width:2px}.cls-6,.cls-7{stroke:#002f4f}.cls-7,.cls-8{fill:#ff9f00}.cls-7{stroke-linejoin:round}</style></defs><g id="Language_Icons" data-name="Language Icons"><circle class="cls-1" cx="63.78" cy="61.01" r="46.84"/><circle class="cls-2" cx="89.64" cy="10.41" r="1.04"/><circle class="cls-2" cx="15.35" cy="28.2" r="1.04"/><path class="cls-3" d="M4.91 39H10.37z"/><path class="cls-3" d="M7.64 41.73V36.27z"/><path class="cls-3" d="M117.86 78.38H123.32z"/><path class="cls-3" d="M120.59 81.11V75.65z"/><path class="cls-3" d="M45.38 2V3.4z"/><path class="cls-3" d="M45.38 6.98V8.39z"/><path class="cls-3" d="M48.63 5.26H47.23z"/><path class="cls-3" d="M43.62 5.26H42.21z"/><path class="cls-3" d="M47.72 2.91 46.73 3.9z"/><path class="cls-3" d="M47.72 7.48 46.73 6.48z"/><path class="cls-3" d="M43.02 2.91 44.01 3.9z"/><path class="cls-3" d="M43.02 7.48 44.01 6.48z"/><circle class="cls-3" cx="98.83" cy="9.55" r="2.1"/><path class="cls-4" d="M98.17 18.28H103.63z"/><path class="cls-4" d="M100.9 21.01V15.55z"/><path class="cls-4" d="M122.07 64.79V65.93z"/><path class="cls-4" d="M122.07 68.81V69.95z"/><path class="cls-4" d="M124.7 67.42H123.57z"/><path class="cls-4" d="M120.65 67.42H119.52z"/><path class="cls-4" d="M123.97 65.53 123.16 66.33z"/><path class="cls-4" d="M123.97 69.22 123.16 68.41z"/><path class="cls-4" d="M120.17 65.53 120.97 66.33z"/><path class="cls-4" d="M120.17 69.22 120.97 68.41z"/><circle class="cls-4" cx="2.8" cy="30.31" r="2.1"/><path class="cls-5" d="M17.7 53.55A46.77 46.77.0 0 1 56.3 14.8"/><path class="cls-5" d="M110.2 68.43a46.88 46.88.0 0 1-92.61-1.05"/><path class="cls-5" d="M71.51 14.77A46.78 46.78.0 0 1 110.32 54"/><rect class="cls-6" x="44.68" y="43.74" width="40.15" height="40.15" rx="2.53" transform="translate(-26.16 64.48) rotate(-45)"/><path class="cls-7" d="M54.44 44.49l6.2 6.19A3.66 3.66.0 0 0 60.38 52a3.83 3.83.0 0 0 2.3 3.51V69.83a3.83 3.83.0 1 0 3.08.0v-14l5.55 5.55A3.8 3.8.0 0 0 71 62.79a3.85 3.85.0 1 0 2.51-3.59l-5.76-5.75A3.69 3.69.0 0 0 68.05 52a3.82 3.82.0 0 0-3.83-3.83 3.69 3.69.0 0 0-1.41.27L56.64 42.3"/><circle class="cls-8" cx="64.04" cy="14.1" r="1.68"/><circle class="cls-8" cx="16.59" cy="60.88" r="1.68"/><circle class="cls-8" cx="111.21" cy="60.88" r="1.68"/></g></svg>