<?xml version="1.0" encoding="UTF-8" standalone="no"?>
<svg width="126px" height="108px" viewBox="0 0 126 108" version="1.1" xmlns="http://www.w3.org/2000/svg" xmlns:xlink="http://www.w3.org/1999/xlink" xmlns:sketch="http://www.bohemiancoding.com/sketch/ns">
    <!-- Generator: Sketch 3.3.3 (12081) - http://www.bohemiancoding.com/sketch -->
    <title>study</title>
    <desc>Created with Sketch.</desc>
    <defs></defs>
    <g id="Page-1" stroke="none" stroke-width="1" fill="none" fill-rule="evenodd" sketch:type="MSPage">
        <g id="lesson-icons" sketch:type="MSArtboardGroup" transform="translate(-54.000000, -47.000000)">
            <g id="study" sketch:type="MSLayerGroup" transform="translate(54.000000, 47.000000)">
                <path d="M111.332,59.798 C111.332,85.665 90.362,106.635 64.494,106.635 C38.627,106.635 17.657,85.665 17.657,59.798 C17.657,33.93 38.627,12.961 64.494,12.961 C90.362,12.961 111.332,33.93 111.332,59.798" id="Fill-1" fill="#07B2AD" sketch:type="MSShapeGroup"></path>
                <path d="M94.368,41.019 L35.435,41.019 C34.525,41.019 33.785,41.76 33.785,42.669 L33.785,95.164 C41.923,101.99 52.412,106.635 63.865,106.635 C76.317,106.635 87.627,102.349 96.017,94.422 L96.017,42.669 C96.017,41.76 95.277,41.019 94.368,41.019" id="Fill-2" fill="#FFFFFF" sketch:type="MSShapeGroup"></path>
                <path d="M91.001,67.571 L67.487,67.571 C67.211,67.571 66.987,67.348 66.987,67.071 C66.987,66.795 67.211,66.571 67.487,66.571 L91.001,66.571 C91.277,66.571 91.501,66.795 91.501,67.071 C91.501,67.348 91.277,67.571 91.001,67.571" id="Fill-3" fill="#068989" sketch:type="MSShapeGroup"></path>
                <path d="M96.017,52.487 L33.786,52.487 L33.786,43.111 C33.786,41.956 34.722,41.019 35.877,41.019 L93.926,41.019 C95.081,41.019 96.017,41.956 96.017,43.111 L96.017,52.487" id="Fill-4" fill="#24D3C6" sketch:type="MSShapeGroup"></path>
                <path d="M91.274,9.196 C91.274,9.768 90.81,10.232 90.238,10.232 C89.665,10.232 89.201,9.768 89.201,9.196 C89.201,8.624 89.665,8.16 90.238,8.16 C90.81,8.16 91.274,8.624 91.274,9.196" id="Fill-5" fill="#068989" sketch:type="MSShapeGroup"></path>
                <path d="M16.985,26.987 C16.985,27.559 16.521,28.023 15.948,28.023 C15.376,28.023 14.912,27.559 14.912,26.987 C14.912,26.414 15.376,25.95 15.948,25.95 C16.521,25.95 16.985,26.414 16.985,26.987" id="Fill-6" fill="#068989" sketch:type="MSShapeGroup"></path>
                <path d="M66.55,12.952 C66.55,13.882 65.796,14.635 64.867,14.635 C63.937,14.635 63.183,13.882 63.183,12.952 C63.183,12.022 63.937,11.268 64.867,11.268 C65.796,11.268 66.55,12.022 66.55,12.952" id="Fill-7" fill="#068989" sketch:type="MSShapeGroup"></path>
                <path d="M19.315,59.794 C19.315,60.723 18.561,61.477 17.632,61.477 C16.702,61.477 15.948,60.723 15.948,59.794 C15.948,58.864 16.702,58.11 17.632,58.11 C18.561,58.11 19.315,58.864 19.315,59.794" id="Fill-8" fill="#068989" sketch:type="MSShapeGroup"></path>
                <path d="M112.999,59.794 C112.999,60.723 112.245,61.477 111.315,61.477 C110.386,61.477 109.632,60.723 109.632,59.794 C109.632,58.864 110.386,58.11 111.315,58.11 C112.245,58.11 112.999,58.864 112.999,59.794" id="Fill-9" fill="#068989" sketch:type="MSShapeGroup"></path>
                <path d="M93.643,52.978 L34.448,52.978 C34.172,52.978 33.948,52.754 33.948,52.477 C33.948,52.201 34.172,51.978 34.448,51.978 L93.643,51.978 C93.92,51.978 94.144,52.201 94.144,52.477 C94.144,52.754 93.92,52.978 93.643,52.978" id="Fill-10" fill="#068989" sketch:type="MSShapeGroup"></path>
                <path d="M10.962,38.285 L5.5,38.285 C5.224,38.285 5,38.062 5,37.785 C5,37.509 5.224,37.285 5.5,37.285 L10.962,37.285 C11.238,37.285 11.462,37.509 11.462,37.785 C11.462,38.062 11.238,38.285 10.962,38.285" id="Fill-11" fill="#068989" sketch:type="MSShapeGroup"></path>
                <path d="M8.231,41.017 C7.955,41.017 7.731,40.793 7.731,40.517 L7.731,35.055 C7.731,34.778 7.955,34.555 8.231,34.555 C8.508,34.555 8.731,34.778 8.731,35.055 L8.731,40.517 C8.731,40.793 8.508,41.017 8.231,41.017" id="Fill-12" fill="#068989" sketch:type="MSShapeGroup"></path>
                <path d="M123.919,77.665 L118.457,77.665 C118.181,77.665 117.957,77.441 117.957,77.165 C117.957,76.889 118.181,76.665 118.457,76.665 L123.919,76.665 C124.195,76.665 124.419,76.889 124.419,77.165 C124.419,77.441 124.195,77.665 123.919,77.665" id="Fill-13" fill="#068989" sketch:type="MSShapeGroup"></path>
                <path d="M121.187,80.396 C120.911,80.396 120.687,80.173 120.687,79.897 L120.687,74.434 C120.687,74.157 120.911,73.934 121.187,73.934 C121.464,73.934 121.688,74.157 121.688,74.434 L121.688,79.897 C121.688,80.173 121.464,80.396 121.187,80.396" id="Fill-14" fill="#068989" sketch:type="MSShapeGroup"></path>
                <path d="M45.97,2.687 C45.693,2.687 45.47,2.463 45.47,2.186 L45.47,0.781 C45.47,0.505 45.693,0.281 45.97,0.281 C46.246,0.281 46.47,0.505 46.47,0.781 L46.47,2.186 C46.47,2.463 46.246,2.687 45.97,2.687" id="Fill-15" fill="#068989" sketch:type="MSShapeGroup"></path>
                <path d="M45.97,7.669 C45.693,7.669 45.47,7.445 45.47,7.169 L45.47,5.764 C45.47,5.487 45.693,5.264 45.97,5.264 C46.246,5.264 46.47,5.487 46.47,5.764 L46.47,7.169 C46.47,7.445 46.246,7.669 45.97,7.669" id="Fill-16" fill="#068989" sketch:type="MSShapeGroup"></path>
                <path d="M49.227,4.539 L47.822,4.539 C47.546,4.539 47.322,4.315 47.322,4.039 C47.322,3.763 47.546,3.539 47.822,3.539 L49.227,3.539 C49.504,3.539 49.727,3.763 49.727,4.039 C49.727,4.315 49.504,4.539 49.227,4.539" id="Fill-17" fill="#068989" sketch:type="MSShapeGroup"></path>
                <path d="M44.214,4.539 L42.809,4.539 C42.532,4.539 42.308,4.315 42.308,4.039 C42.308,3.763 42.532,3.539 42.809,3.539 L44.214,3.539 C44.49,3.539 44.714,3.763 44.714,4.039 C44.714,4.315 44.49,4.539 44.214,4.539" id="Fill-18" fill="#068989" sketch:type="MSShapeGroup"></path>
                <path d="M47.325,3.184 C47.197,3.184 47.069,3.135 46.972,3.037 C46.776,2.842 46.776,2.525 46.972,2.33 L47.966,1.337 C48.161,1.142 48.477,1.142 48.673,1.337 C48.868,1.532 48.868,1.849 48.673,2.044 L47.679,3.037 C47.581,3.135 47.453,3.184 47.325,3.184" id="Fill-19" fill="#068989" sketch:type="MSShapeGroup"></path>
                <path d="M48.319,6.761 C48.191,6.761 48.063,6.712 47.966,6.614 L46.972,5.62 C46.776,5.425 46.776,5.108 46.972,4.913 C47.167,4.718 47.483,4.718 47.679,4.913 L48.673,5.907 C48.868,6.103 48.868,6.419 48.673,6.614 C48.575,6.712 48.447,6.761 48.319,6.761" id="Fill-20" fill="#068989" sketch:type="MSShapeGroup"></path>
                <path d="M44.604,3.184 C44.476,3.184 44.348,3.135 44.251,3.037 L43.258,2.044 C43.062,1.849 43.062,1.532 43.258,1.337 C43.453,1.142 43.77,1.142 43.965,1.337 L44.958,2.33 C45.153,2.525 45.153,2.842 44.958,3.037 C44.86,3.135 44.732,3.184 44.604,3.184" id="Fill-21" fill="#068989" sketch:type="MSShapeGroup"></path>
                <path d="M43.611,6.761 C43.483,6.761 43.355,6.712 43.258,6.614 C43.062,6.419 43.062,6.103 43.258,5.907 L44.251,4.913 C44.446,4.718 44.763,4.718 44.958,4.913 C45.153,5.108 45.153,5.425 44.958,5.62 L43.965,6.614 C43.867,6.712 43.739,6.761 43.611,6.761" id="Fill-22" fill="#068989" sketch:type="MSShapeGroup"></path>
                <path d="M99.426,10.936 C97.991,10.936 96.823,9.768 96.823,8.333 C96.823,6.898 97.991,5.73 99.426,5.73 C100.86,5.73 102.028,6.898 102.028,8.333 C102.028,9.768 100.86,10.936 99.426,10.936 L99.426,10.936 Z M99.426,6.73 C98.542,6.73 97.823,7.449 97.823,8.333 C97.823,9.217 98.542,9.936 99.426,9.936 C100.309,9.936 101.028,9.217 101.028,8.333 C101.028,7.449 100.309,6.73 99.426,6.73 L99.426,6.73 Z" id="Fill-23" fill="#068989" sketch:type="MSShapeGroup"></path>
                <path d="M104.229,17.56 L98.768,17.56 C98.491,17.56 98.268,17.336 98.268,17.06 C98.268,16.783 98.491,16.56 98.768,16.56 L104.229,16.56 C104.506,16.56 104.729,16.783 104.729,17.06 C104.729,17.336 104.506,17.56 104.229,17.56" id="Fill-24" fill="#DAF6F2" sketch:type="MSShapeGroup"></path>
                <path d="M101.498,20.291 C101.222,20.291 100.998,20.067 100.998,19.791 L100.998,14.328 C100.998,14.052 101.222,13.828 101.498,13.828 C101.774,13.828 101.998,14.052 101.998,14.328 L101.998,19.791 C101.998,20.067 101.774,20.291 101.498,20.291" id="Fill-25" fill="#DAF6F2" sketch:type="MSShapeGroup"></path>
                <path d="M122.665,65.11 C122.444,65.11 122.265,64.931 122.265,64.71 L122.265,63.575 C122.265,63.355 122.444,63.175 122.665,63.175 C122.886,63.175 123.065,63.355 123.065,63.575 L123.065,64.71 C123.065,64.931 122.886,65.11 122.665,65.11" id="Fill-26" fill="#DAF6F2" sketch:type="MSShapeGroup"></path>
                <path d="M122.665,69.132 C122.444,69.132 122.265,68.952 122.265,68.731 L122.265,67.597 C122.265,67.376 122.444,67.196 122.665,67.196 C122.886,67.196 123.065,67.376 123.065,67.597 L123.065,68.731 C123.065,68.952 122.886,69.132 122.665,69.132" id="Fill-27" fill="#DAF6F2" sketch:type="MSShapeGroup"></path>
                <path d="M125.295,66.605 L124.161,66.605 C123.94,66.605 123.761,66.426 123.761,66.205 C123.761,65.984 123.94,65.805 124.161,65.805 L125.295,65.805 C125.516,65.805 125.695,65.984 125.695,66.205 C125.695,66.426 125.516,66.605 125.295,66.605" id="Fill-28" fill="#DAF6F2" sketch:type="MSShapeGroup"></path>
                <path d="M121.248,66.605 L120.113,66.605 C119.892,66.605 119.713,66.426 119.713,66.205 C119.713,65.984 119.892,65.805 120.113,65.805 L121.248,65.805 C121.469,65.805 121.648,65.984 121.648,66.205 C121.648,66.426 121.469,66.605 121.248,66.605" id="Fill-29" fill="#DAF6F2" sketch:type="MSShapeGroup"></path>
                <path d="M123.76,65.511 C123.657,65.511 123.555,65.472 123.476,65.394 C123.32,65.237 123.32,64.984 123.476,64.827 L124.278,64.025 C124.434,63.869 124.688,63.869 124.845,64.025 C125.001,64.182 125.001,64.436 124.845,64.592 L124.043,65.394 C123.965,65.472 123.862,65.511 123.76,65.511" id="Fill-30" fill="#DAF6F2" sketch:type="MSShapeGroup"></path>
                <path d="M124.561,68.398 C124.459,68.398 124.356,68.359 124.278,68.281 L123.476,67.48 C123.32,67.323 123.32,67.069 123.476,66.913 C123.633,66.757 123.887,66.757 124.043,66.913 L124.845,67.715 C125.001,67.871 125.001,68.125 124.845,68.281 C124.766,68.359 124.664,68.398 124.561,68.398" id="Fill-31" fill="#DAF6F2" sketch:type="MSShapeGroup"></path>
                <path d="M121.563,65.511 C121.461,65.511 121.358,65.472 121.28,65.394 L120.478,64.592 C120.322,64.436 120.322,64.182 120.478,64.025 C120.635,63.869 120.889,63.869 121.045,64.025 L121.847,64.827 C122.003,64.984 122.003,65.237 121.847,65.394 C121.768,65.472 121.666,65.511 121.563,65.511" id="Fill-32" fill="#DAF6F2" sketch:type="MSShapeGroup"></path>
                <path d="M120.762,68.398 C120.659,68.398 120.557,68.359 120.478,68.281 C120.322,68.125 120.322,67.871 120.478,67.715 L121.28,66.913 C121.436,66.757 121.69,66.757 121.847,66.913 C122.003,67.069 122.003,67.323 121.847,67.48 L121.045,68.281 C120.967,68.359 120.864,68.398 120.762,68.398" id="Fill-33" fill="#DAF6F2" sketch:type="MSShapeGroup"></path>
                <path d="M3.397,31.692 C1.963,31.692 0.795,30.524 0.795,29.089 C0.795,27.654 1.963,26.486 3.397,26.486 C4.832,26.486 6,27.654 6,29.089 C6,30.524 4.832,31.692 3.397,31.692 L3.397,31.692 Z M3.397,27.486 C2.514,27.486 1.795,28.205 1.795,29.089 C1.795,29.973 2.514,30.692 3.397,30.692 C4.281,30.692 5,29.973 5,29.089 C5,28.205 4.281,27.486 3.397,27.486 L3.397,27.486 Z" id="Fill-34" fill="#DAF6F2" sketch:type="MSShapeGroup"></path>
                <path d="M44.446,57.115 C43.857,56.372 42.57,56.16 42.047,56.18 C41.647,56.195 41.295,56.264 40.979,56.439 C40.627,56.144 40.075,55.991 40.023,56.087 C39.959,56.205 40.105,56.828 40.257,57.168 C40.144,57.386 40.043,57.821 40.043,58.173 C40.043,58.503 40.121,58.767 40.247,58.985 C39.841,59.036 39.411,59.164 39.002,59.438 C39.299,59.445 39.545,59.484 39.715,59.531 L39.679,59.564 L39.604,59.63 L39.429,59.801 L39.419,59.812 L39.218,60.059 C39.711,59.889 40.098,59.862 40.187,59.92 C40.275,59.978 40.607,59.942 40.748,59.73 L40.85,59.61 C40.861,60.166 41.054,60.807 41.054,60.807 L41.06,60.831 L41.155,61.125 L41.176,61.193 L41.203,61.247 L41.199,61.249 L41.226,61.294 L41.243,61.32 L41.307,61.358 L41.318,61.354 L41.373,61.324 L41.396,61.294 L41.419,61.263 L41.415,61.259 L41.447,61.198 L41.472,61.131 L41.577,60.927 L42.454,60.942 L42.55,61.218 L42.577,61.272 L42.573,61.273 L42.6,61.319 L42.616,61.345 L42.681,61.383 L42.692,61.379 L42.747,61.349 L42.769,61.319 L42.793,61.287 L42.788,61.284 L42.821,61.222 L42.845,61.155 L42.947,60.859 L42.951,60.847 L42.953,60.841 C42.953,60.841 43.004,60.677 43.057,60.443 L43.157,60.52 L43.223,60.561 L43.243,60.57 L43.255,60.578 L43.296,60.596 L43.302,60.6 L43.305,60.601 L43.34,60.615 L43.346,60.618 L43.394,60.632 L43.412,60.637 L43.463,60.648 L43.497,60.656 L43.515,60.656 L43.695,60.657 L43.629,60.655 L43.733,60.655 L43.979,60.567 L44.038,60.528 L44.067,60.506 L44.094,60.482 L44.113,60.464 L44.141,60.435 L44.186,60.379 C44.242,60.304 44.292,60.215 44.304,60.116 C44.366,59.629 44.02,59.423 43.803,59.407 C43.459,59.381 43.323,59.535 43.27,59.631 L43.202,59.838 C43.198,60.044 43.364,60.214 43.573,60.218 L43.575,60.217 L43.701,60.195 L43.751,60.172 L43.791,60.146 L43.844,60.111 L43.829,60.149 L43.816,60.172 L43.813,60.178 L43.801,60.193 L43.76,60.239 L43.653,60.297 L43.53,60.317 L43.47,60.312 L43.441,60.308 L43.413,60.301 L43.36,60.284 L43.313,60.263 L43.241,60.225 L43.118,60.139 C43.152,59.948 43.177,59.741 43.178,59.548 C43.662,59.322 43.981,58.91 43.988,58.243 C43.991,57.979 43.943,57.637 43.865,57.416 L43.919,57.403 L44.053,57.36 L44.12,57.335 L44.185,57.31 L44.297,57.259 L44.341,57.236 L44.375,57.216 L44.395,57.202 L44.401,57.197 L44.4,57.195 L44.393,57.199 L44.381,57.205 L44.446,57.115" id="Fill-35" fill="#068989" sketch:type="MSShapeGroup"></path>
                <path d="M77.005,59.709 L73.068,59.709 C72.793,59.709 72.571,59.486 72.571,59.212 L72.571,59.148 C72.571,58.873 72.793,58.651 73.068,58.651 L77.005,58.651 C77.28,58.651 77.502,58.873 77.502,59.148 L77.502,59.212 C77.502,59.486 77.28,59.709 77.005,59.709" id="Fill-36" fill="#068989" sketch:type="MSShapeGroup"></path>
                <path d="M84.394,59.709 L80.456,59.709 C80.182,59.709 79.959,59.486 79.959,59.212 L79.959,59.148 C79.959,58.873 80.182,58.651 80.456,58.651 L84.394,58.651 C84.668,58.651 84.89,58.873 84.89,59.148 L84.89,59.212 C84.89,59.486 84.668,59.709 84.394,59.709" id="Fill-37" fill="#068989" sketch:type="MSShapeGroup"></path>
                <path d="M91.782,59.709 L87.845,59.709 C87.57,59.709 87.348,59.486 87.348,59.212 L87.348,59.148 C87.348,58.873 87.57,58.651 87.845,58.651 L91.782,58.651 C92.056,58.651 92.279,58.873 92.279,59.148 L92.279,59.212 C92.279,59.486 92.056,59.709 91.782,59.709" id="Fill-38" fill="#068989" sketch:type="MSShapeGroup"></path>
                <path d="M91.001,72.09 L67.487,72.09 C67.211,72.09 66.987,71.866 66.987,71.59 C66.987,71.314 67.211,71.09 67.487,71.09 L91.001,71.09 C91.277,71.09 91.501,71.314 91.501,71.59 C91.501,71.866 91.277,72.09 91.001,72.09" id="Fill-39" fill="#068989" sketch:type="MSShapeGroup"></path>
                <path d="M79.997,76.609 L67.487,76.609 C67.211,76.609 66.987,76.386 66.987,76.109 C66.987,75.833 67.211,75.609 67.487,75.609 L79.997,75.609 C80.273,75.609 80.497,75.833 80.497,76.109 C80.497,76.386 80.273,76.609 79.997,76.609" id="Fill-40" fill="#068989" sketch:type="MSShapeGroup"></path>
                <path d="M39.713,66.897 L59.482,66.897 L59.482,78.495 L39.713,78.495 L39.713,66.897 Z" id="Fill-41" fill="#B5E9E7" sketch:type="MSShapeGroup"></path>
                <path d="M61.572,78.995 L39.713,78.995 C39.436,78.995 39.213,78.772 39.213,78.495 L39.213,64.83 C39.213,64.554 39.436,64.33 39.713,64.33 L61.572,64.33 C61.849,64.33 62.072,64.554 62.072,64.83 L62.072,78.495 C62.072,78.772 61.849,78.995 61.572,78.995 L61.572,78.995 Z M40.213,77.995 L61.072,77.995 L61.072,65.33 L40.213,65.33 L40.213,77.995 Z" id="Fill-42" fill="#068989" sketch:type="MSShapeGroup"></path>
                <path d="M39.713,84.195 L88.911,84.195 L88.911,95.793 L39.713,95.793 L39.713,84.195 Z" id="Fill-43" fill="#24D3C6" sketch:type="MSShapeGroup"></path>
                <path d="M40.555,46.724 C40.555,47.296 40.086,47.76 39.507,47.76 C38.928,47.76 38.459,47.296 38.459,46.724 C38.459,46.151 38.928,45.687 39.507,45.687 C40.086,45.687 40.555,46.151 40.555,46.724" id="Fill-44" fill="#1AA8A4" sketch:type="MSShapeGroup"></path>
                <path d="M39.507,48.26 C38.653,48.26 37.959,47.57 37.959,46.724 C37.959,45.877 38.653,45.188 39.507,45.188 C40.36,45.188 41.055,45.877 41.055,46.724 C41.055,47.57 40.36,48.26 39.507,48.26 L39.507,48.26 Z M39.507,46.188 C39.205,46.188 38.959,46.428 38.959,46.724 C38.959,47.02 39.205,47.26 39.507,47.26 C39.809,47.26 40.055,47.02 40.055,46.724 C40.055,46.428 39.809,46.188 39.507,46.188 L39.507,46.188 Z" id="Fill-45" fill="#068989" sketch:type="MSShapeGroup"></path>
                <path d="M44.615,46.724 C44.615,47.296 44.146,47.76 43.568,47.76 C42.989,47.76 42.519,47.296 42.519,46.724 C42.519,46.151 42.989,45.687 43.568,45.687 C44.146,45.687 44.615,46.151 44.615,46.724" id="Fill-46" fill="#1AA8A4" sketch:type="MSShapeGroup"></path>
                <path d="M43.567,48.26 C42.714,48.26 42.019,47.57 42.019,46.724 C42.019,45.877 42.714,45.188 43.567,45.188 C44.421,45.188 45.115,45.877 45.115,46.724 C45.115,47.57 44.421,48.26 43.567,48.26 L43.567,48.26 Z M43.567,46.188 C43.266,46.188 43.02,46.428 43.02,46.724 C43.02,47.02 43.266,47.26 43.567,47.26 C43.869,47.26 44.115,47.02 44.115,46.724 C44.115,46.428 43.869,46.188 43.567,46.188 L43.567,46.188 Z" id="Fill-47" fill="#068989" sketch:type="MSShapeGroup"></path>
                <path d="M48.676,46.724 C48.676,47.296 48.207,47.76 47.628,47.76 C47.049,47.76 46.58,47.296 46.58,46.724 C46.58,46.151 47.049,45.687 47.628,45.687 C48.207,45.687 48.676,46.151 48.676,46.724" id="Fill-48" fill="#1AA8A4" sketch:type="MSShapeGroup"></path>
                <path d="M47.628,48.26 C46.774,48.26 46.08,47.57 46.08,46.724 C46.08,45.877 46.774,45.188 47.628,45.188 C48.481,45.188 49.176,45.877 49.176,46.724 C49.176,47.57 48.481,48.26 47.628,48.26 L47.628,48.26 Z M47.628,46.188 C47.326,46.188 47.08,46.428 47.08,46.724 C47.08,47.02 47.326,47.26 47.628,47.26 C47.93,47.26 48.176,47.02 48.176,46.724 C48.176,46.428 47.93,46.188 47.628,46.188 L47.628,46.188 Z" id="Fill-49" fill="#068989" sketch:type="MSShapeGroup"></path>
                <path d="M90.977,96.293 L39.713,96.293 C39.436,96.293 39.213,96.069 39.213,95.793 L39.213,82.128 C39.213,81.851 39.436,81.628 39.713,81.628 L90.977,81.628 C91.254,81.628 91.478,81.851 91.478,82.128 L91.478,95.793 C91.478,96.069 91.254,96.293 90.977,96.293 L90.977,96.293 Z M40.213,95.293 L90.478,95.293 L90.478,82.628 L40.213,82.628 L40.213,95.293 Z" id="Fill-50" fill="#068989" sketch:type="MSShapeGroup"></path>
                <path d="M18.201,52.976 L18.123,52.97 C17.85,52.927 17.663,52.671 17.706,52.399 C20.873,32.208 36.55,16.409 56.715,13.085 C56.979,13.036 57.245,13.225 57.289,13.497 C57.334,13.77 57.149,14.026 56.877,14.071 C37.139,17.325 21.794,32.79 18.694,52.553 C18.655,52.8 18.442,52.976 18.201,52.976" id="Fill-51" fill="#068989" sketch:type="MSShapeGroup"></path>
                <path d="M64.474,107.136 C41.004,107.136 20.85,89.637 17.594,66.432 C17.556,66.158 17.746,65.905 18.019,65.867 C18.29,65.836 18.546,66.019 18.584,66.293 C21.771,89.007 41.5,106.136 64.474,106.136 C87.293,106.136 106.525,89.818 110.205,67.336 C110.249,67.064 110.514,66.876 110.779,66.924 C111.052,66.968 111.236,67.226 111.191,67.498 C107.433,90.466 87.785,107.136 64.474,107.136" id="Fill-52" fill="#068989" sketch:type="MSShapeGroup"></path>
                <path d="M110.815,53.435 C110.571,53.435 110.358,53.256 110.321,53.007 C107.378,32.94 91.948,17.284 71.927,14.048 C71.654,14.004 71.469,13.747 71.514,13.475 C71.557,13.201 71.82,13.016 72.087,13.061 C92.54,16.367 108.304,32.361 111.311,52.862 C111.352,53.135 111.162,53.39 110.889,53.43 L110.815,53.435" id="Fill-53" fill="#068989" sketch:type="MSShapeGroup"></path>
                <path d="M63.865,107.136 C53.171,107.136 42.374,103.02 33.464,95.547 C33.35,95.452 33.285,95.312 33.285,95.164 L33.285,42.669 C33.285,41.483 34.25,40.52 35.435,40.52 L94.367,40.52 C95.553,40.52 96.518,41.483 96.518,42.669 L96.518,94.423 C96.518,94.56 96.461,94.691 96.361,94.786 C87.93,102.75 76.39,107.136 63.865,107.136 L63.865,107.136 Z M34.285,94.93 C42.98,102.157 53.476,106.136 63.865,106.136 C76.056,106.136 87.287,101.9 95.517,94.207 L95.517,42.669 C95.517,42.035 95.002,41.52 94.367,41.52 L35.435,41.52 C34.801,41.52 34.285,42.035 34.285,42.669 L34.285,94.93 L34.285,94.93 Z" id="Fill-54" fill="#068989" sketch:type="MSShapeGroup"></path>
            </g>
        </g>
    </g>
</svg>