<svg xmlns="http://www.w3.org/2000/svg" viewBox="0 0 125 108"><defs><style>.cls-2{fill:#a5743a}.cls-11,.cls-4,.cls-5,.cls-6{fill:none}.cls-11,.cls-4,.cls-9{stroke:#a5743a}.cls-11,.cls-4,.cls-5,.cls-6,.cls-9{stroke-linecap:round}.cls-4,.cls-5,.cls-6{stroke-miterlimit:10}.cls-5,.cls-6{stroke:#dbd1c3}.cls-6{stroke-width:.8px}.cls-10,.cls-9{fill:#e3cfb1}.cls-11,.cls-9{stroke-linejoin:round}.cls-12{fill:#a06d30}</style></defs><g id="Language_Icons" data-name="Language Icons"><circle cx="63.97" cy="60.66" r="46.84" fill="#c99c61" opacity=".5"/><circle class="cls-2" cx="89.69" cy="10.06" r="1.04"/><circle class="cls-2" cx="15.4" cy="27.85" r="1.04"/><circle class="cls-2" cx="64.32" cy="13.82" r="1.68"/><circle class="cls-2" cx="17.09" cy="60.66" r="1.68"/><circle class="cls-2" cx="110.77" cy="60.66" r="1.68"/><g opacity=".7"><path class="cls-4" d="M4.96 38.65h5.46M7.69 41.38v-5.46M117.91 78.03h5.46M120.64 80.76V75.3M45.43 1.65v1.4M45.43 6.63v1.4M48.68 4.9h-1.4M43.67 4.9h-1.41M47.77 2.55l-.99 1M47.77 7.13l-.99-1M43.07 2.55l.99 1M43.07 7.13l.99-1"/><circle class="cls-4" cx="98.88" cy="9.2" r="2.1"/></g><path class="cls-5" d="M98.22 17.92h5.46M100.95 20.66v-5.47"/><path class="cls-6" d="M122.12 64.44v1.13M122.12 68.46v1.14M124.75 67.07h-1.13M120.7 67.07h-1.13M124.02 65.17l-.81.81M124.02 68.86l-.81-.8M120.22 65.17l.8.81M120.22 68.86l.8-.8"/><circle class="cls-5" cx="2.85" cy="29.95" r="2.1"/><path d="M93.67 42.17H34.73a1.65 1.65 0 00-1.64 1.65v52.06a51.38 51.38 0 0031.57 11.61c12.45 0 22.27-4.57 30.66-12.5V43.82a1.65 1.65 0 00-1.65-1.65z" fill="#fff"/><path fill="#d0b07f" opacity=".9" d="M33.09 42.49h62.23v11.6H33.09z"/><path class="cls-4" d="M93.67 42.17H34.73a1.65 1.65 0 00-1.64 1.65v52.06c9 7.17 19.43 11.62 30.88 11.62 12.45 0 22.67-4.45 31.35-12V43.82a1.65 1.65 0 00-1.65-1.65zM33.75 53.63h59.19M17.72 53.34a46.87 46.87 0 0138.59-38.9M110.21 68.28a46.84 46.84 0 01-92.6-1M71.52 14.42a46.86 46.86 0 0138.81 39.38"/><path class="cls-4" d="M37.89 45.73l1.84 1.91-1.84 1.83M40.31 50.05h2.75"/><path class="cls-9" d="M76.9 79.49a4.61 4.61 0 104.6 4.61 4.61 4.61 0 00-4.6-4.61zm-.13 6.61a2 2 0 112-2 2 2 0 01-2 2z"/><path class="cls-10" d="M76.23 84.29v-9.92H52.69v9.92A11.27 11.27 0 0064 95.56h1a11.26 11.26 0 0011.23-11.27z"/><path class="cls-11" d="M50.63 74.37h25.6v8.4a12.8 12.8 0 01-12.8 12.8 12.8 12.8 0 01-12.8-12.8v-8.4zM51.97 78.59h19.87"/><path class="cls-9" d="M65.46 64.23a5.39 5.39 0 01-2.22 3.27c-1 .72-1.9 2.68.28 4.58-.45-1.85 0-2.91 1-3.69s2.05-2.73.94-4.16zM63.24 61.52c.76 1.48.42 2.48-1.05 3.74a3.93 3.93 0 00-1 4.25 5.5 5.5 0 012.23-3.66 2.57 2.57 0 00-.18-4.33z"/><path class="cls-12" d="M62.93 85.48a5.73 5.73 0 011.81-1.7 2.44 2.44 0 00-3.11.48 2.41 2.41 0 00-.42 3.18 11.14 11.14 0 001.72-1.96zM63.27 85.68a10.57 10.57 0 01-1.78 2A2.64 2.64 0 0065 84.06a5.49 5.49 0 00-1.73 1.62z"/><path class="cls-10" d="M76.47 95.66a.1.1 0 00-.09-.1H53.94a.1.1 0 00-.09.1 1.52 1.52 0 001.47 1.58H75a1.52 1.52 0 001.47-1.58z"/><path class="cls-11" d="M50.49 95.56h25.88a.1.1 0 01.1.1 1.58 1.58 0 01-1.58 1.58H52a1.58 1.58 0 01-1.58-1.58.1.1 0 01.1-.1z"/></g></svg>