<svg xmlns="http://www.w3.org/2000/svg" viewBox="0 0 125 108"><defs><style>.cls-1{fill:#6e9adf;opacity:.5}.cls-2{fill:#fff}.cls-3{fill:#5074bc}.cls-4{fill:#98b7ea}.cls-5{opacity:.7}.cls-10,.cls-11,.cls-13,.cls-6,.cls-7,.cls-8,.cls-9{fill:none}.cls-11,.cls-13,.cls-6,.cls-9{stroke:#5074bc}.cls-10,.cls-6,.cls-7,.cls-8,.cls-9{stroke-linecap:round}.cls-11,.cls-6,.cls-7,.cls-8{stroke-miterlimit:10}.cls-7,.cls-8{stroke:#cbddff}.cls-8{stroke-width:.8px}.cls-10,.cls-13,.cls-9{stroke-linejoin:round}.cls-10{stroke:#4b6ab8}.cls-12{fill:#ffe600}</style></defs><g id="Language_Icons" data-name="Language Icons"><circle class="cls-1" cx="63.68" cy="60.66" r="46.84"/><path class="cls-2" d="M93.15 41.88H34.21a1.65 1.65.0 0 0-1.65 1.65V96.05c8.14 6.82 18.63 11.45 30.08 11.45A46.7 46.7.0 0 0 94.8 94.71V43.53A1.65 1.65.0 0 0 93.15 41.88z"/><circle class="cls-3" cx="89.96" cy="10.06" r="1.04"/><circle class="cls-3" cx="15.67" cy="27.85" r="1.04"/><circle class="cls-3" cx="64.59" cy="13.82" r="1.68"/><circle class="cls-3" cx="17.36" cy="60.66" r="1.68"/><circle class="cls-3" cx="111.04" cy="60.66" r="1.68"/><path class="cls-4" d="M35 42.2H94.8a0 0 0 0 1 0 0V53.8a0 0 0 0 1 0 0H32.56a0 0 0 0 1 0 0V44.63A2.43 2.43.0 0 1 35 42.2z"/><g class="cls-5"><path class="cls-6" d="M4.47 38.65H9.93z"/><path class="cls-6" d="M7.2 41.38V35.92z"/><path class="cls-6" d="M117.43 78.03H122.89z"/><path class="cls-6" d="M120.16 80.76V75.3z"/><path class="cls-6" d="M44.94 1.65v1.4z"/><path class="cls-6" d="M44.94 6.63V8.03z"/><path class="cls-6" d="M48.2 4.9H46.79z"/><path class="cls-6" d="M43.18 4.9H41.78z"/><path class="cls-6" d="M47.29 2.55 46.3 3.55z"/><path class="cls-6" d="M47.29 7.13 46.3 6.13z"/><path class="cls-6" d="M42.58 2.55l1 1z"/><path class="cls-6" d="M42.58 7.13l1-1z"/><path class="cls-3" d="M98.4 7.1a2.1 2.1.0 1 1-2.11 2.1A2.1 2.1.0 0 1 98.4 7.1m0-1a3.1 3.1.0 1 0 3.1 3.1 3.11 3.11.0 0 0-3.1-3.1z"/></g><path class="cls-7" d="M98.22 17.92H103.68z"/><path class="cls-7" d="M100.95 20.66V15.19z"/><path class="cls-8" d="M122.12 64.44V65.57z"/><path class="cls-8" d="M122.12 68.46V69.6z"/><path class="cls-8" d="M124.75 67.07H123.62z"/><path class="cls-8" d="M120.7 67.07H119.57z"/><path class="cls-8" d="M124.02 65.17 123.21 65.98z"/><path class="cls-8" d="M124.02 68.86 123.21 68.06z"/><path class="cls-8" d="M120.22 65.17 121.02 65.98z"/><path class="cls-8" d="M120.22 68.86 121.02 68.06z"/><circle class="cls-7" cx="2.85" cy="29.95" r="2.1"/><path class="cls-9" d="M33.68 53.34H92.87z"/><path class="cls-10" d="M37.79 45.84 39.63 47.75 37.79 49.58"/><path class="cls-10" d="M40.21 50.16h2.75z"/><path class="cls-6" d="M17.43 53.34A46.87 46.87.0 0 1 56 14.44"/><path class="cls-6" d="M109.93 68.28a46.85 46.85.0 0 1-92.61-1"/><path class="cls-6" d="M71.23 14.42A46.86 46.86.0 0 1 110 53.8"/><path class="cls-11" d="M93.6 41.88H34.66A1.65 1.65.0 0 0 33 43.53V96.05c8.14 6.82 18.63 11.45 30.08 11.45 12.46.0 23.77-4.29 32.16-12.21V43.53A1.65 1.65.0 0 0 93.6 41.88z"/><path class="cls-12" d="M47.68 68.33H74a2 2 0 0 1 2 2V96.6a0 0 0 0 1 0 0H47.68a0 0 0 0 1 0 0V68.33a0 0 0 0 1 0 0z"/><path class="cls-3" d="M59.45 86.33h4.94v1.48H61.05v1.35h3.16v1.48H61.05v1.48h3.53V93.6H59.45z"/><path class="cls-3" d="M69.25 88.11a1.13 1.13.0 0 0-.53-.37 1.84 1.84.0 0 0-.63-.12 2.2 2.2.0 0 0-.36.0 1.48 1.48.0 0 0-.35.13.87.87.0 0 0-.27.23.6.6.0 0 0-.1.35.58.58.0 0 0 .25.51 2.39 2.39.0 0 0 .62.29c.25.09.52.17.8.25a3.25 3.25.0 0 1 .81.35 1.81 1.81.0 0 1 .62.61 1.78 1.78.0 0 1 .25 1 2.33 2.33.0 0 1-.23 1.06 2.13 2.13.0 0 1-.61.75 2.65 2.65.0 0 1-.89.44 3.81 3.81.0 0 1-1.08.14 4 4 0 0 1-1.31-.21 3.48 3.48.0 0 1-1.13-.7l1.14-1.25a1.62 1.62.0 0 0 .62.51 1.78 1.78.0 0 0 .78.18 1.74 1.74.0 0 0 .39.0 1.42 1.42.0 0 0 .36-.14.75.75.0 0 0 .26-.24.59.59.0 0 0 .1-.33A.61.61.0 0 0 68.5 91a2.06 2.06.0 0 0-.63-.33l-.82-.26a3.78 3.78.0 0 1-.82-.36 2 2 0 0 1-.63-.6 1.66 1.66.0 0 1-.25-1 2.12 2.12.0 0 1 .23-1 2.31 2.31.0 0 1 .61-.74 2.77 2.77.0 0 1 .89-.45 3.63 3.63.0 0 1 1-.15 3.94 3.94.0 0 1 1.19.18 2.89 2.89.0 0 1 1 .58z"/><path class="cls-3" d="M73.76 88.93l.24-.05a1.1 1.1.0 0 1 .26.0 2.34 2.34.0 0 1 .93.18 2.16 2.16.0 0 1 .72.5 2.34 2.34.0 0 1 .46.76 2.6 2.6.0 0 1 .17.93 2.45 2.45.0 0 1-.21 1 2.24 2.24.0 0 1-.58.78 2.55 2.55.0 0 1-.86.51 3.24 3.24.0 0 1-2.13.0A2.65 2.65.0 0 1 71.9 93a2.35 2.35.0 0 1-.57-.78 2.45 2.45.0 0 1-.21-1 3.26 3.26.0 0 1 .07-.72 3.94 3.94.0 0 1 .19-.61 4.07 4.07.0 0 1 .28-.55l.33-.54 1.59-2.48h1.88zM75 91.17A1.11 1.11.0 0 0 73.83 90a1.14 1.14.0 0 0-.85.32 1.1 1.1.0 0 0-.32.82A1.08 1.08.0 0 0 73 92a1.15 1.15.0 0 0 .85.33 1.11 1.11.0 0 0 .84-.33A1.09 1.09.0 0 0 75 91.17z"/><path class="cls-13" d="M47.68 64.6h32v32H47.68z"/></g></svg>