<svg xmlns="http://www.w3.org/2000/svg" xmlns:xlink="http://www.w3.org/1999/xlink" viewBox="0 0 125 108"><defs><style>.cls-1,.cls-11,.cls-16,.cls-17,.cls-5,.cls-6,.cls-7{fill:none}.cls-2{fill:#5ed67e;opacity:.5}.cls-3{fill:#41ba60}.cls-4{opacity:.7}.cls-11,.cls-16,.cls-17,.cls-5,.cls-7{stroke:#41ba60}.cls-17,.cls-5,.cls-6,.cls-7{stroke-linecap:round}.cls-11,.cls-16,.cls-5,.cls-6,.cls-7{stroke-miterlimit:10}.cls-5,.cls-6{stroke-width:.8px}.cls-6{stroke:#c4ffd2}.cls-8{fill:#fff}.cls-9{fill:#edb92b}.cls-10{fill:#b6f3be}.cls-12{clip-path:url(#clip-path)}.cls-13{opacity:.6}.cls-14{fill:#8fe0a2}.cls-15{fill:#dcf3df}.cls-16,.cls-17{stroke-width:1.08px}.cls-17{stroke-linejoin:round}</style><clipPath id="clip-path"><path class="cls-1" d="M65.52 65.24a1.69 1.69.0 0 0-1.66.0L50.08 73.07a1.63 1.63.0 0 0-.83 1.42V90.15a1.63 1.63.0 0 0 .83 1.42L63.86 99.4a1.69 1.69.0 0 0 1.66.0L79.3 91.57a1.63 1.63.0 0 0 .83-1.42V74.49a1.61 1.61.0 0 0-.83-1.42z"/></clipPath></defs><g id="Language_Icons" data-name="Language Icons"><circle class="cls-2" cx="63.88" cy="60.66" r="46.84"/><circle class="cls-3" cx="89.64" cy="10.07" r="1.04"/><circle class="cls-3" cx="15.35" cy="27.86" r="1.04"/><circle class="cls-3" cx="64.27" cy="13.82" r="1.68"/><circle class="cls-3" cx="17.03" cy="60.67" r="1.68"/><circle class="cls-3" cx="110.71" cy="60.67" r="1.68"/><g class="cls-4"><path class="cls-5" d="M4.91 38.65H10.37z"/><path class="cls-5" d="M7.64 41.38V35.92z"/><path class="cls-5" d="M117.86 78.03H123.32z"/><path class="cls-5" d="M120.59 80.76V75.3z"/><path class="cls-5" d="M45.38 1.65v1.4z"/><path class="cls-5" d="M45.38 6.63V8.03z"/><path class="cls-5" d="M48.63 4.9H47.23z"/><path class="cls-5" d="M43.62 4.9H42.21z"/><path class="cls-5" d="M47.72 2.55 46.73 3.55z"/><path class="cls-5" d="M47.72 7.13 46.73 6.13z"/><path class="cls-5" d="M43.02 2.55 44.01 3.55z"/><path class="cls-5" d="M43.02 7.13 44.01 6.13z"/><circle class="cls-5" cx="98.83" cy="9.2" r="2.1"/></g><path class="cls-6" d="M98.17 17.92H103.63z"/><path class="cls-6" d="M100.9 20.66V15.19z"/><path class="cls-6" d="M122.07 64.44V65.57z"/><path class="cls-6" d="M122.07 68.46V69.6z"/><path class="cls-6" d="M124.7 67.07H123.57z"/><path class="cls-6" d="M120.65 67.07H119.52z"/><path class="cls-6" d="M123.97 65.17 123.16 65.98z"/><path class="cls-6" d="M123.97 68.86 123.16 68.06z"/><path class="cls-6" d="M120.17 65.17 120.97 65.98z"/><path class="cls-6" d="M120.17 68.86 120.97 68.06z"/><circle class="cls-6" cx="2.8" cy="29.95" r="2.1"/><path class="cls-7" d="M17.61 53.34A46.87 46.87.0 0 1 56.2 14.44"/><path class="cls-7" d="M110.1 68.28a46.85 46.85.0 0 1-92.61-1"/><path class="cls-7" d="M71.41 14.42A46.87 46.87.0 0 1 110.22 53.8"/><path class="cls-8" d="M93.44 44.39H35.82A1.61 1.61.0 0 0 34.21 46V97A46.32 46.32.0 0 0 95.06 95.2V46A1.6 1.6.0 0 0 93.44 44.39z"/><path class="cls-9" d="M63.62 108.07A46.7 46.7.0 0 1 33.89 97.38l-.18-.15V46a2.1 2.1.0 0 1 2.11-2.08H93.44A2.1 2.1.0 0 1 95.56 46h0V95.43l-.16.15A46.48 46.48.0 0 1 63.62 108.07zm-28.9-11.3A45.8 45.8.0 0 0 94.55 95V46a1.09 1.09.0 0 0-1.11-1.09H35.82A1.09 1.09.0 0 0 34.72 46h0z"/><path class="cls-10" d="M34.21 44.7h60.85v11.16H34.21z"/><path class="cls-3" d="M92.74 55.92H34.86a.52.52.0 0 1-.51-.5.5.5.0 0 1 .5-.5H92.74a.5.5.0 0 1 0 1z"/><path class="cls-3" d="M63.62 108.07A46.7 46.7.0 0 1 33.89 97.38l-.18-.15V46a2.1 2.1.0 0 1 2.11-2.08H93.44A2.1 2.1.0 0 1 95.56 46h0V95.43l-.16.15A46.48 46.48.0 0 1 63.62 108.07zm-28.9-11.3A45.8 45.8.0 0 0 94.55 95V46a1.09 1.09.0 0 0-1.11-1.09H35.82A1.09 1.09.0 0 0 34.72 46h0z"/><ellipse class="cls-11" cx="41.15" cy="50.23" rx="1.01" ry=".99"/><ellipse class="cls-11" cx="45.07" cy="50.23" rx="1.01" ry=".99"/><ellipse class="cls-11" cx="49" cy="50.23" rx="1.01" ry=".99"/><g class="cls-12"><g class="cls-13"><path class="cls-14" d="M65.17 66.12 51.36 74a1.67 1.67.0 0 0-.89 1.42v15.7a1.62 1.62.0 0 0 .43 1L66.41 66A1.73 1.73.0 0 0 65.17 66.12z"/><path class="cls-15" d="M66.49 100.44a1.68 1.68.0 0 0 .39-.16l13.79-7.83a1.67 1.67.0 0 0 .87-1.38V75.36A1.57 1.57.0 0 0 81 74.23z"/><path class="cls-3" d="M80.62 74 66.84 66.12c-.13-.08-1.34-.8-1.49-.84L50.9 92.07a2.07 2.07.0 0 0 .46.38l13.84 7.83a1.76 1.76.0 0 0 1.29.16L81 74.23A1.3 1.3.0 0 0 80.62 74z"/></g><path class="cls-1" d="M81.54 91.07V75.36A1.65 1.65.0 0 0 80.62 74L66.84 66.12a1.43 1.43.0 0 0-.5-.18L81.48 91.4A1 1 0 0 0 81.54 91.07z"/><path class="cls-1" d="M51.36 74a1.67 1.67.0 0 0-.89 1.42v15.7a1.72 1.72.0 0 0 .89 1.42l13.84 7.83a1.74 1.74.0 0 0 1.07.2L51.44 73.9z"/><path class="cls-1" d="M64.73 63.24 64.55 63.35h.25L64.73 63.24z"/><path class="cls-15" d="M80.67 92.45a1.71 1.71.0 0 0 .81-1l-16-25.38c-.39-.08.0-.14-.36.06L50.62 74.37l15.11 26.21a5.56 5.56.0 0 0 1.15-.3z"/><path class="cls-1" d="M81.95 92.19 81.86 92.04V92.25L81.95 92.19z"/><path class="cls-1" d="M80.67 92.45l-13.79 7.83a1.82 1.82.0 0 1-.61.2l.27.49 15.32-8.72v-.18l-.38-.64A1.68 1.68.0 0 1 80.67 92.45z"/><path class="cls-1" d="M80.67 92.45l-13.79 7.83a1.82 1.82.0 0 1-.61.2l.27.49 15.32-8.72v-.18l-.38-.64A1.68 1.68.0 0 1 80.67 92.45z"/></g><path class="cls-16" d="M65.21 65a1.71 1.71.0 0 0-1.67.0L49.76 72.82a1.66 1.66.0 0 0-.83 1.42V89.91a1.65 1.65.0 0 0 .83 1.41l13.78 7.84a1.71 1.71.0 0 0 1.67.0L79 91.32a1.6 1.6.0 0 0 .84-1.41V74.24A1.62 1.62.0 0 0 79 72.82z"/><path class="cls-17" d="M64.47 65.09 76.28 82.95z"/><path class="cls-17" d="M55.75 83.35 64.54 99.24z"/></g></svg>