<svg xmlns="http://www.w3.org/2000/svg" viewBox="0 0 125 108"><defs><style>.cls-2{fill:#857bbf}.cls-12,.cls-4,.cls-5,.cls-6,.cls-7{fill:none}.cls-10,.cls-4,.cls-5{stroke:#857bbf}.cls-10,.cls-12,.cls-4,.cls-5,.cls-6,.cls-7{stroke-linecap:round}.cls-4,.cls-5,.cls-6,.cls-7{stroke-miterlimit:10}.cls-5,.cls-7{stroke-width:.8px}.cls-6,.cls-7{stroke:#f1eef9}.cls-10,.cls-12{stroke-linejoin:round}.cls-10{fill:#c9dcf3}.cls-12{stroke:#a48fd7}.cls-14{fill:#a5ebfb}</style></defs><g id="Language_Icons" data-name="Language Icons"><circle cx="63.97" cy="60.66" r="46.84" fill="#a5a0da" opacity=".5"/><circle class="cls-2" cx="89.69" cy="10.06" r="1.04"/><circle class="cls-2" cx="15.4" cy="27.85" r="1.04"/><circle class="cls-2" cx="64.32" cy="13.82" r="1.68"/><circle class="cls-2" cx="17.09" cy="60.66" r="1.68"/><circle class="cls-2" cx="110.77" cy="60.66" r="1.68"/><g opacity=".7"><path class="cls-4" d="M4.96 38.65h5.46M7.69 41.38v-5.46M117.91 78.03h5.46M120.64 80.76V75.3"/><path class="cls-5" d="M45.43 1.65v1.4M45.43 6.63v1.4M48.68 4.9h-1.4M43.67 4.9h-1.41M47.77 2.55l-.99 1M47.77 7.13l-.99-1M43.07 2.55l.99 1M43.07 7.13l.99-1"/><circle class="cls-4" cx="98.88" cy="9.2" r="2.1"/></g><path class="cls-6" d="M98.22 17.92h5.46M100.95 20.66v-5.47"/><path class="cls-7" d="M122.12 64.44v1.13M122.12 68.46v1.14M124.75 67.07h-1.13M120.7 67.07h-1.13M124.02 65.17l-.81.81M124.02 68.86l-.81-.8M120.22 65.17l.8.81M120.22 68.86l.8-.8"/><circle class="cls-6" cx="2.85" cy="29.95" r="2.1"/><path d="M93.67 42.17H34.73a1.65 1.65 0 00-1.64 1.65v52.06a51.38 51.38 0 0031.57 11.61c12.45 0 22.27-4.57 30.66-12.5V43.82a1.65 1.65 0 00-1.65-1.65z" fill="#fff"/><path fill="#b4b8e7" d="M33.09 42.49h62.23v11.6H33.09z"/><path class="cls-4" d="M93.67 42.17H34.73a1.65 1.65 0 00-1.64 1.65v52.06c9 7.17 19.43 11.62 30.88 11.62 12.45 0 22.67-4.45 31.35-12V43.82a1.65 1.65 0 00-1.65-1.65zM33.75 53.63h59.19"/><circle class="cls-10" cx="39.04" cy="48.33" r="1.04"/><circle class="cls-10" cx="43.06" cy="48.33" r="1.04"/><circle class="cls-10" cx="47.07" cy="48.33" r="1.04"/><path class="cls-4" d="M17.72 53.34a46.87 46.87 0 0138.59-38.9M110.21 68.28a46.84 46.84 0 01-92.6-1M71.52 14.42a46.86 46.86 0 0138.81 39.38"/><path d="M81.16 75.84c-3.61-5.13-8.57-7.29-13.08-7.29-2.37 0-5.49.16-7.93 2.18-1.66 2-2.8 5.17-2.8 10.32 0 2.45-.8 3.93-1.92 4.64-2.83 1.4-7 .22-7-4.53l-2.43.08c.26 2.08 1.41 7.21 6.49 7.81 4.37.53 7-.32 8.48-1.51 1.15-1.49 1.16-1.2 1.16-1.2a5.48 5.48 0 001-2.89v8.19h4.72a4 4 0 011.34-2.48 3.52 3.52 0 012.86-1.61c2.35 0 4.51 2.91 4.51 4.09h5.16c1.38-2.47 3.05-10.64-.56-15.8z" fill="#cdc1e9"/><path class="cls-12" d="M63.14 83.45v8.19h5.19c0-1.57 1.37-4.09 3.73-4.09s4.51 2.91 4.51 4.09h5.29c1 0 4.91-8.63 1-15.1s-9.21-9-13.72-9-11.77.57-11.77 13.54c0 8.24-9 5.47-9-.41l-2.5.06s0 7.57 6.57 8.35c10.66 1.28 10.67-5.6 10.67-5.6M65.33 74.68a5.84 5.84 0 11.14 7.59"/><circle cx="59.88" cy="79.08" r=".69" fill="#a48fd7"/><path class="cls-14" d="M49.92 75.65a2 2 0 00.31-.55 1.57 1.57 0 00-2.64-.4c-.79.71-.86 1.81-1.17 2.82a6.87 6.87 0 003.5-1.87zM44 79a7.21 7.21 0 00.2-1.12 2.12 2.12 0 00-.2-.74c-.37-.69-1.47-.5-1.88.11.57 1.12 1.46 1.03 1.88 1.75z"/><path class="cls-12" d="M45.87 77.63c.92-1.22.61-3 1.72-4 1.64-1.48 3.62.41 2.33 2s-4.05 2-4.05 2zM44 79c-.42-.72-1.36-.59-1.94-1.84s1.42-2 1.94-1A5.12 5.12 0 0144 79z"/></g></svg>