<svg xmlns="http://www.w3.org/2000/svg" viewBox="0 0 125 108"><defs><style>.cls-2{fill:#fff}.cls-4{fill:#00b8fa}.cls-10,.cls-5,.cls-7,.cls-8,.cls-9{fill:none}.cls-5,.cls-7,.cls-9{stroke:#00b8fa}.cls-10,.cls-5,.cls-7,.cls-8,.cls-9{stroke-linecap:round}.cls-10,.cls-5{stroke-linejoin:round}.cls-7,.cls-8,.cls-9{stroke-miterlimit:10}.cls-7,.cls-8{stroke-width:.8px}.cls-8{stroke:#d4f9ff}.cls-10{stroke:#00affa}</style></defs><g id="Language_Icons" data-name="Language Icons"><circle cx="63.88" cy="60.66" r="46.84" fill="#61d3fc" opacity=".5"/><path class="cls-2" d="M93.77 41.88H34.84a1.65 1.65 0 00-1.65 1.65v53a46.69 46.69 0 0030.08 10.97c12.45 0 23.56-4.11 31.95-12l.2-51.94a1.65 1.65 0 00-1.65-1.68z"/><path fill="#93e1fd" d="M33.56 42.41h61.66v10.94H33.56z"/><circle class="cls-4" cx="89.64" cy="10.07" r="1.04"/><circle class="cls-4" cx="15.35" cy="27.86" r="1.04"/><circle class="cls-4" cx="64.27" cy="13.82" r="1.68"/><circle class="cls-4" cx="17.03" cy="60.67" r="1.68"/><circle class="cls-4" cx="110.71" cy="60.67" r="1.68"/><path class="cls-5" d="M33.85 53.34h59.2"/><g opacity=".7"><path class="cls-7" d="M4.91 38.65h5.46M7.64 41.38v-5.46M117.86 78.03h5.46M120.59 80.76V75.3M45.38 1.65v1.4M45.38 6.63v1.4M48.63 4.9h-1.4M43.62 4.9h-1.41M47.72 2.55l-.99 1M47.72 7.13l-.99-1M43.02 2.55l.99 1M43.02 7.13l.99-1"/><circle class="cls-7" cx="98.83" cy="9.2" r="2.1"/></g><path class="cls-8" d="M98.17 17.92h5.46M100.9 20.66v-5.47M122.07 64.44v1.13M122.07 68.46v1.14M124.7 67.07h-1.13M120.65 67.07h-1.13M123.97 65.17l-.81.81M123.97 68.86l-.81-.8M120.17 65.17l.8.81M120.17 68.86l.8-.8"/><circle class="cls-8" cx="2.8" cy="29.95" r="2.1"/><path class="cls-9" d="M17.61 53.34a46.87 46.87 0 0138.59-38.9M110.1 68.28a46.85 46.85 0 01-92.61-1M71.41 14.42a46.87 46.87 0 0138.81 39.38"/><path class="cls-5" d="M93.77 41.88H34.84a1.65 1.65 0 00-1.65 1.65v53a46.69 46.69 0 0030.08 10.97c12.45 0 23.76-4.11 32.15-12V43.53a1.65 1.65 0 00-1.65-1.65z"/><path class="cls-10" d="M37.34 45.77l1.83 1.9-1.83 1.84M39.76 50.08h2.74"/><path d="M55.2 88.66l.09-5c0-2.77 3.25-3.49 6.1-3.49l7.06.11c2.33 0 3.89-1.28 3.89-4.28l.25-7c0-1.22-.1-2.44-1.34-3a17.53 17.53 0 00-5.45-.78 36.77 36.77 0 00-4 .25c-1.53.23-3.08.68-3.08 3.1v1.32A1.1 1.1 0 0059.87 71h5.32v2.07l-8.95.29c-2.44 0-5.58.44-6.36 2.74s-2.46 12.92 4 12.58z" fill="#f8e15b"/><path d="M56.91 68.93a6.48 6.48 0 01-1.72-.13 1.72 1.72 0 01-1.35-1.19c-.15-.61-.16-1.36-.32-1.91a8 8 0 00-.82 1.13c-.38-.06-1-.34-1.37-.42s1.47 2.64 2.81 3.27a4.42 4.42 0 002.77.41 5.61 5.61 0 010-1.16z" fill="#ff5465" stroke-width=".5" stroke-linejoin="round" stroke-linecap="round" stroke="#00b8fa"/><path class="cls-4" d="M64.68 64.37a24.78 24.78 0 014.08.33c1.67.28 3.36 1.53 3.36 3.38v8.29a3.24 3.24 0 01-3.24 3.23h-8.64a5.61 5.61 0 00-5.63 6v2.83h-2.2a3 3 0 01-2.51-1.23c-2-2.53-1.5-8.18-1-10.37a4.24 4.24 0 014.27-3.49h11.57a1 1 0 001-1v-1.06a1 1 0 00-1-1h-7.4v-2.2c0-1.94.32-2.84 3.37-3.38a23.4 23.4 0 013.85-.33h.12m0-1h-.13a23.66 23.66 0 00-4 .35c-3.55.62-4.2 1.94-4.2 4.36v3.2h8.4v1.06H53.19A5.25 5.25 0 0048 76.6c-.77 3.19-1.41 12.78 4.46 12.78h3.2v-3.83c0-2.77 1.78-5 4.63-5h8.64a4.25 4.25 0 004.24-4.23v-8.24a4.68 4.68 0 00-4.2-4.36 25.36 25.36 0 00-4.24-.35z"/><path class="cls-2" d="M60 68.53a1 1 0 111-1 1 1 0 01-1 1z"/><path class="cls-4" d="M60 67a.59.59 0 11-.57.59A.58.58 0 0160 67m0-.8a1.39 1.39 0 101.37 1.39A1.38 1.38 0 0060 66.16z"/><path d="M64.56 97.78a24.71 24.71 0 01-4.17-.34c-1.87-.31-3.77-1.74-3.77-3.87v-8.35a3.67 3.67 0 013.67-3.67H69c3 0 5.14-2.24 5.14-5.44v-3.34h2.69a3.48 3.48 0 012.91 1.38c2.1 2.67 1.61 8.53 1.07 10.79A4.77 4.77 0 0176 88.81H64v2.07h8.39v2.69c0 2.26-.53 3.3-3.78 3.87a23.19 23.19 0 01-3.93.34z" fill="#6ed7fc"/><path class="cls-4" d="M76.82 73.27a3 3 0 012.51 1.18c2 2.53 1.51 8.18 1 10.37A4.23 4.23 0 0176 88.31H63.5v3.07h8.39v2.19c0 1.94-.32 2.84-3.37 3.38a23.18 23.18 0 01-3.84.33h-.13a24.66 24.66 0 01-4.07-.28c-1.67-.28-3.36-1.53-3.36-3.38v-8.4a3.17 3.17 0 013.17-3.17H69a5.61 5.61 0 005.64-5.94v-2.84h2.19m0-1h-3.2v3.84c0 2.77-1.79 4.94-4.64 4.94h-8.7a4.18 4.18 0 00-4.17 4.17v8.35a4.68 4.68 0 004.19 4.37 26.44 26.44 0 004.24.34h.13a24.59 24.59 0 004-.34c3.56-.63 4.2-1.94 4.2-4.37v-3.19H64.5v-1.07H76a5.24 5.24 0 005.24-4.25c.77-3.2 1.42-12.79-4.46-12.79z"/><path class="cls-2" d="M69.22 95.1a1 1 0 01-1-1 1 1 0 111.93 0 1 1 0 01-.93 1z"/><path class="cls-4" d="M69.22 93.52a.57.57 0 01.57.58.58.58 0 01-.57.6.59.59 0 01-.57-.6.58.58 0 01.57-.58m0-.8a1.39 1.39 0 101.37 1.38 1.38 1.38 0 00-1.37-1.38z"/></g></svg>