<svg xmlns="http://www.w3.org/2000/svg" viewBox="0 0 125 108"><defs><style>.cls-1{fill:#33d2eb;opacity:.5}.cls-12,.cls-13,.cls-2{fill:#fff}.cls-3{fill:#cceff5}.cls-4{fill:#00b1cc}.cls-5{opacity:.7}.cls-10,.cls-6,.cls-7,.cls-8{fill:none}.cls-6,.cls-8{stroke:#00b1cc}.cls-10,.cls-11,.cls-6,.cls-7,.cls-8{stroke-linecap:round}.cls-12,.cls-13,.cls-6,.cls-7,.cls-8{stroke-miterlimit:10}.cls-6,.cls-7{stroke-width:.8px}.cls-7{stroke:#d9faff}.cls-9{fill:#ccf4fa}.cls-10,.cls-11,.cls-12,.cls-13{stroke:#00c7e5}.cls-10,.cls-11{stroke-linejoin:round}.cls-10,.cls-11,.cls-13{stroke-width:1.2px}.cls-11{fill:#00c7e5}.cls-12{stroke-width:1.3px}</style></defs><g id="Language_Icons" data-name="Language Icons"><circle class="cls-1" cx="63.88" cy="60.66" r="46.84"/><path class="cls-2" d="M93.73 41.49H34.8a1.65 1.65.0 0 0-1.65 1.65v52.5c8.14 6.82 18.63 11.47 30.08 11.47 12.45.0 23.76-4.29 32.15-12.22V43.14A1.65 1.65.0 0 0 93.73 41.49z"/><path class="cls-3" d="M35.24 41.49h58a2.09 2.09.0 0 1 2.09 2.09V53a0 0 0 0 1 0 0H33.15a0 0 0 0 1 0 0V43.58a2.09 2.09.0 0 1 2.09-2.09z"/><circle class="cls-4" cx="89.64" cy="10.07" r="1.04"/><circle class="cls-4" cx="15.35" cy="27.86" r="1.04"/><circle class="cls-4" cx="64.27" cy="13.82" r="1.68"/><circle class="cls-4" cx="17.03" cy="60.67" r="1.68"/><circle class="cls-4" cx="110.71" cy="60.67" r="1.68"/><g class="cls-5"><path class="cls-6" d="M4.91 38.65H10.37z"/><path class="cls-6" d="M7.64 41.38V35.92z"/><path class="cls-6" d="M117.86 78.03H123.32z"/><path class="cls-6" d="M120.59 80.76V75.3z"/><path class="cls-6" d="M45.38 1.65v1.4z"/><path class="cls-6" d="M45.38 6.63V8.03z"/><path class="cls-6" d="M48.63 4.9H47.23z"/><path class="cls-6" d="M43.62 4.9H42.21z"/><path class="cls-6" d="M47.72 2.55 46.73 3.55z"/><path class="cls-6" d="M47.72 7.13 46.73 6.13z"/><path class="cls-6" d="M43.02 2.55 44.01 3.55z"/><path class="cls-6" d="M43.02 7.13 44.01 6.13z"/><circle class="cls-6" cx="98.83" cy="9.2" r="2.1"/></g><path class="cls-7" d="M98.17 17.92H103.63z"/><path class="cls-7" d="M100.9 20.66V15.19z"/><path class="cls-7" d="M122.07 64.44V65.57z"/><path class="cls-7" d="M122.07 68.46V69.6z"/><path class="cls-7" d="M124.7 67.07H123.57z"/><path class="cls-7" d="M120.65 67.07H119.52z"/><path class="cls-7" d="M123.97 65.17 123.16 65.98z"/><path class="cls-7" d="M123.97 68.86 123.16 68.06z"/><path class="cls-7" d="M120.17 65.17 120.97 65.98z"/><path class="cls-7" d="M120.17 68.86 120.97 68.06z"/><circle class="cls-7" cx="2.8" cy="29.95" r="2.1"/><path class="cls-8" d="M17.61 53.34A46.87 46.87.0 0 1 56.2 14.44"/><path class="cls-8" d="M110.1 68.28a46.85 46.85.0 0 1-92.61-1"/><path class="cls-8" d="M71.41 14.42A46.87 46.87.0 0 1 110.22 53.8"/><path class="cls-8" d="M33.15 52.95H92.35z"/><ellipse class="cls-8" cx="39.32" cy="47.19" rx="1.05" ry="1.04"/><ellipse class="cls-8" cx="43.38" cy="47.19" rx="1.05" ry="1.04"/><ellipse class="cls-8" cx="47.44" cy="47.19" rx="1.05" ry="1.04"/><path class="cls-8" d="M93.73 41.49H34.8a1.65 1.65.0 0 0-1.65 1.65v52.5c8.14 6.82 18.63 11.47 30.08 11.47 12.45.0 23.76-4.29 32.15-12.22V43.14A1.65 1.65.0 0 0 93.73 41.49z"/><ellipse class="cls-9" cx="66.51" cy="78.72" rx="6.19" ry="17.4" transform="translate(-36.18 70.08) rotate(-45)"/><ellipse class="cls-9" cx="66.51" cy="78.72" rx="17.4" ry="6.19" transform="translate(-18.11 19.9) rotate(-15)"/><ellipse class="cls-9" cx="66.51" cy="78.72" rx="17.4" ry="6.19" transform="translate(-26.74 122.59) rotate(-75)"/><path class="cls-10" d="M67.14 90.29c4.58 3 8.57 4 10.25 2.31 1.26-1.27 1-3.83-.42-7"/><path class="cls-10" d="M57 81.23c-.77-.9-1.48-1.79-2.12-2.68"/><path class="cls-10" d="M67.14 90.29a43.6 43.6.0 0 1-4.85-3.69"/><path class="cls-10" d="M59.41 97.48c2.3.62 5.23-2.31 7.73-7.19"/><path class="cls-10" d="M56.26 87.33a30.07 30.07.0 0 0 0 3"/><path class="cls-10" d="M69 61.07c-2.3-.63-5.23 2.3-7.73 7.19"/><path class="cls-10" d="M57 81.23c.79.93 1.65 1.86 2.55 2.78s1.83 1.78 2.75 2.59"/><path class="cls-10" d="M66.16 72c-1.19.23-2.41.51-3.65.85s-2.44.71-3.58 1.11"/><path class="cls-10" d="M62.29 86.6c1.19-.24 2.41-.52 3.65-.85s2.44-.71 3.58-1.12"/><path class="cls-10" d="M66.16 72a41.92 41.92.0 0 1 6-.74"/><path class="cls-10" d="M53.35 76.32a41.56 41.56.0 0 1 5.58-2.41"/><path class="cls-10" d="M75.1 82.22a41.56 41.56.0 0 1-5.58 2.41"/><path class="cls-11" d="M69.52 84.63c.4-1.16.77-2.37 1.1-3.62s.61-2.49.84-3.7"/><path class="cls-10" d="M69.52 84.63a42.84 42.84.0 0 1-2.38 5.66"/><path class="cls-10" d="M56.26 87.33a44.4 44.4.0 0 1 .73-6.1"/><path class="cls-10" d="M53.35 76.32c-4.83 2.53-7.73 5.5-7.11 7.83s4.59 3.44 10 3.18"/><path class="cls-10" d="M62.29 86.6a41.83 41.83.0 0 1-6 .73"/><path class="cls-10" d="M58.93 73.91a42.68 42.68.0 0 1 2.38-5.65"/><path class="cls-10" d="M58.93 73.91c-.4 1.16-.77 2.37-1.1 3.63S57.22 80 57 81.23"/><path class="cls-10" d="M61.31 68.26c-4.58-3-8.57-4-10.25-2.32-1.17 1.19-1.23 4.16.51 7"/><path class="cls-10" d="M61.31 68.26A42.41 42.41.0 0 1 66.16 72"/><ellipse class="cls-12" cx="64.34" cy="79.7" rx="2.38" ry="2.4"/><ellipse class="cls-13" cx="72.05" cy="63.52" rx="1.41" ry="1.43"/><ellipse class="cls-13" cx="56.95" cy="94.53" rx="1.41" ry="1.43"/><path class="cls-10" d="M75.1 82.22c4.83-2.53 7.73-5.5 7.11-7.83s-4.59-3.43-10-3.18"/><path class="cls-10" d="M72.19 71.21a31.51 31.51.0 0 0 0-3.39"/><path class="cls-10" d="M72.19 71.21a44 44 0 0 1-.73 6.1"/><path class="cls-10" d="M71.46 77.31c-.79-.93-1.65-1.86-2.55-2.78S67.08 72.75 66.16 72"/><path class="cls-10" d="M71.46 77.31c.62.73 1.21 1.46 1.75 2.18"/></g></svg>