<svg xmlns="http://www.w3.org/2000/svg" viewBox="0 0 125 108"><defs><style>.cls-4{fill:#e63c52}.cls-11,.cls-12,.cls-6,.cls-7,.cls-8{fill:none}.cls-12,.cls-6{stroke:#dc3f60}.cls-11,.cls-12,.cls-6,.cls-7,.cls-8{stroke-linecap:round}.cls-6,.cls-7,.cls-8{stroke-miterlimit:10}.cls-7,.cls-8{stroke:#ffd9de}.cls-8{stroke-width:.8px}.cls-11{stroke:#e64c60}.cls-11,.cls-12{stroke-linejoin:round}.cls-10{fill:#ffbec4}</style></defs><g id="Language_Icons" data-name="Language Icons"><circle cx="63.93" cy="60.66" r="46.84" fill="#f26f83" opacity=".5"/><path d="M93.82 41.88H34.89a1.65 1.65 0 00-1.65 1.65v52.55a47.05 47.05 0 0030.08 11.42c12.45 0 23.76-4.29 32.15-12.21V43.53a1.65 1.65 0 00-1.65-1.65z" fill="#fff"/><path fill="#ffa2a2" d="M33.24 42.2h62.23v11.6H33.24z"/><circle class="cls-4" cx="89.69" cy="10.06" r="1.04"/><circle class="cls-4" cx="15.4" cy="27.85" r="1.04"/><circle class="cls-4" cx="64.32" cy="13.82" r="1.68"/><circle class="cls-4" cx="17.09" cy="60.66" r="1.68"/><circle class="cls-4" cx="110.77" cy="60.66" r="1.68"/><g opacity=".7"><path class="cls-6" d="M4.96 38.65h5.46M7.69 41.38v-5.46M117.91 78.03h5.46M120.64 80.76V75.3M45.43 1.65v1.4M45.43 6.63v1.4M48.68 4.9h-1.4M43.67 4.9h-1.41M47.77 2.55l-.99 1M47.77 7.13l-.99-1M43.07 2.55l.99 1M43.07 7.13l.99-1"/><circle class="cls-6" cx="98.88" cy="9.2" r="2.1"/></g><path class="cls-7" d="M98.22 17.92h5.46M100.95 20.66v-5.47"/><path class="cls-8" d="M122.12 64.44v1.13M122.12 68.46v1.14M124.75 67.07h-1.13M120.7 67.07h-1.13M124.02 65.17l-.81.81M124.02 68.86l-.81-.8M120.22 65.17l.8.81M120.22 68.86l.8-.8"/><circle class="cls-7" cx="2.85" cy="29.95" r="2.1"/><path class="cls-6" d="M17.66 53.34a46.87 46.87 0 0138.59-38.9M110.15 68.28a46.85 46.85 0 01-92.61-1M71.46 14.42a46.87 46.87 0 0138.81 39.38"/><path d="M51.79 65.44h25.75a.49.49 0 01.4.21l6.15 9.22a.48.48 0 010 .59L64.88 95.93a.48.48 0 01-.69 0L45 75.73a.48.48 0 01-.05-.59l6.42-9.49a.46.46 0 01.42-.21z" stroke-linejoin="round" stroke="#e64c60" fill="#ff7684" stroke-linecap="round"/><path class="cls-10" d="M56.43 77h-5.06a.44.44 0 00-.32.75L62 89.25a.35.35 0 000-.17zM59.98 77.01l5.49 12.49 5.5-12.49H59.98zM74.78 77a.56.56 0 00-.5.32l-4.94 10.9L79.63 77zM69.82 74.19a.44.44 0 00.32-.75l-3.8-4-4.54 4.75zM69.19 69.11l3.6 3.76 2-4.51h-5.27a.44.44 0 00-.33.75zM56.45 69l1.63 3.71 4.14-4.33h-5.37a.44.44 0 00-.4.62zM79.76 74.19a.45.45 0 00.38-.69l-1.91-2.85-1.56 3.54zM54.49 74.19a.44.44 0 00.41-.62L53.76 71l-2.17 3.21z"/><path class="cls-11" d="M49 76.73l12.19 12.84a.45.45 0 00.73-.49l-5.84-12.84a.44.44 0 00-.4-.26H49.3a.44.44 0 00-.3.75zM57.91 76l6.35 14.43a.45.45 0 00.82 0l6.07-13.83a.44.44 0 00-.41-.62zM79.56 76h-5.9a.44.44 0 00-.41.26L67.49 89a.45.45 0 00.73.49l11.67-12.77a.44.44 0 00-.33-.72zM59.8 74.19h10a.44.44 0 00.32-.75l-5-5.24a.45.45 0 00-.64 0l-5 5.24a.44.44 0 00.32.75zM74.55 67.32h-7.1a.45.45 0 00-.32.76L72 73.16a.45.45 0 00.73-.13L75 68a.45.45 0 00-.45-.68zM54.38 68l2.32 5.28a.45.45 0 00.73.13l5.06-5.28a.45.45 0 00-.32-.76h-7.38a.45.45 0 00-.41.63zM80.14 73.5l-3-4.45a.44.44 0 00-.78.07l-2 4.45a.44.44 0 00.41.62h4.92a.45.45 0 00.45-.69zM49.67 74.19h4.82a.44.44 0 00.41-.62L53 69.24a.45.45 0 00-.78-.07L49.3 73.5a.44.44 0 00.37.69z"/><path class="cls-12" d="M33.9 53.34h59.2M38.18 45.59l1.84 1.9-1.84 1.84M40.6 49.9h2.75"/><path class="cls-12" d="M93.82 41.88H34.89a1.65 1.65 0 00-1.65 1.65v52.55a47.05 47.05 0 0030.08 11.42c12.45 0 23.76-4.29 32.15-12.21V43.53a1.65 1.65 0 00-1.65-1.65z"/></g></svg>