<svg xmlns="http://www.w3.org/2000/svg" viewBox="0 0 125 108"><defs><style>.cls-1{fill:#f989cc;opacity:.5}.cls-2{fill:#fff}.cls-3{fill:#efb1d5}.cls-4,.cls-8,.cls-9{fill:none;stroke-miterlimit:10}.cls-4,.cls-9{stroke:#d34693}.cls-4,.cls-8{stroke-linecap:round}.cls-5{fill:#ffbbea}.cls-6{fill:#d34693}.cls-7{opacity:.7}.cls-8{stroke:#fce0ef;stroke-width:.8px}</style></defs><g id="Language_Icons" data-name="Language Icons"><circle class="cls-1" cx="63.91" cy="60.66" r="46.84"/><path class="cls-2" d="M92.6 43.74h-57a1.6 1.6.0 0 0-1.6 1.6V96.65a45.18 45.18.0 0 0 29.11 10.59c12 0 22.8-4 30.92-11.65l.19-50.26a1.6 1.6.0 0 0-1.61-1.59z"/><path class="cls-3" d="M34.68 43.93h59.67v10.58H34.68z"/><path class="cls-4" d="M34.97 54.5H92.25z"/><path class="cls-4" d="M93 43.45H36a1.6 1.6.0 0 0-1.6 1.6V96.33a45.18 45.18.0 0 0 29.11 10.59c12.05.0 23-4 31.11-11.65V45A1.59 1.59.0 0 0 93 43.45z"/><path class="cls-4" d="M38.34 47.17 40.11 49.02 38.34 50.79"/><path class="cls-4" d="M40.68 51.35H43.34z"/><path class="cls-5" d="M80.5 82.28a8.56 8.56.0 0 0-3.81.89 8.19 8.19.0 0 1-.85-2 5.15 5.15.0 0 1-.07-1.66 14.9 14.9.0 0 1 .53-1.76c0-.08-.09-.44-.94-.44s-1.57.16-1.66.39a7.48 7.48.0 0 0-.4 1.24 30.09 30.09.0 0 1-2.57 4.94 5 5 0 0 1-.56-1.43 5.15 5.15.0 0 1-.07-1.66A15.27 15.27.0 0 1 70.6 79c0-.08-.09-.44-.94-.44s-1.57.16-1.66.39-.18.75-.35 1.25-2.23 5.07-2.76 6.25c-.27.6-.51 1.09-.68 1.42h0v.06l-.23.44h0c-.11.21-.24.4-.3.4a2.64 2.64.0 0 1 0-1.31c.31-1.58 1-4.06 1-4.14s.14-.47-.48-.7a.76.76.0 0 0-.87.15s-.09.13-.09.13.67-2.78-1.27-2.78c-1.21.0-2.89 1.32-3.71 2.52l-2.82 1.54-1.36.75-.09-.1c-2.35-2.5-6.69-4.28-6.5-7.64.07-1.22.49-4.45 8.34-8.36 6.47-3.19 11.59-2.31 12.47-.38 1.27 2.79-2.75 8-9.42 8.73a5.19 5.19.0 0 1-4.21-1.05c-.33-.32-.4-.4-.53-.33s-.08.46.0.66a4 4 0 0 0 2.41 1.9 12.8 12.8.0 0 0 7.82-.77c4-1.56 7.2-5.92 6.27-9.55s-7.08-4.92-12.88-2.85a29 29 0 0 0-9.89 5.67c-3.2 3-3.71 5.59-3.5 6.68.75 3.87 6.07 6.38 8.21 8.25l-.29.16c-1.07.53-5.13 2.65-6.15 4.9-1.15 2.55.18 4.37 1.07 4.62a6.56 6.56.0 0 0 7.09-2.88 7.11 7.11.0 0 0 .63-6.53h0l.84-.49c.54-.32 1.08-.62 1.54-.87a10.32 10.32.0 0 0-.6 2.75 5.79 5.79.0 0 0 1.25 4 1.41 1.41.0 0 0 1 .33c.9.0 1.31-.75 1.77-1.64a21.16 21.16.0 0 0 1-2.36s-.62 3.42 1.07 3.42c.61.0 1.23-.8 1.51-1.2h0v-.08l.1-.16h0c.25-.43.79-1.41 1.62-3 1.06-2.08 2.08-4.69 2.08-4.69a14.29 14.29.0 0 0 .4 1.69 16.87 16.87.0 0 0 .88 2l-.4.54h0c-.2.26-.42.54-.65.82a22.71 22.71.0 0 0-2 2.47.67.67.0 0 0 .18.9 1.66 1.66.0 0 0 1 .17 4.79 4.79.0 0 0 1.54-.35 5.64 5.64.0 0 0 1.33-.7A3 3 0 0 0 71.66 87a5.38 5.38.0 0 0-.48-1.85l.22-.33a36 36 0 0 0 2.3-4 22.83 22.83.0 0 0 1.35 3.4 7.11 7.11.0 0 0-2.24 2.9c-.49 1.4-.11 2 .61 2.17a2.28 2.28.0 0 0 1.12-.23A5.31 5.31.0 0 0 76 88.33a3.19 3.19.0 0 0 1.56-2.6 4.79 4.79.0 0 0-.35-1.54 8 8 0 0 1 4.07-.47c3.65.43 4.37 2.71 4.23 3.66A2.43 2.43.0 0 1 84.3 89c-.26.16-.33.21-.31.33s.15.16.37.13a2.85 2.85.0 0 0 2-2.54C86.44 84.71 84.3 82.26 80.5 82.28zM52.3 91.77c-1.21 1.32-2.9 1.82-3.63 1.4s-.47-2.4 1-3.8a18.33 18.33.0 0 1 2.85-2.12l.75-.45h.08l.19-.11A5.25 5.25.0 0 1 52.3 91.77zm8.82-6c-.42 1-1.3 3.66-1.84 3.52s-.74-2.12-.09-4.09a9.11 9.11.0 0 1 1.44-2.63c.66-.74 1.39-1 1.56-.68s-.78 3.24-1 3.89zm7.28 3.48c-.18.09-.34.15-.42.11s.07-.16.07-.16.91-1 1.27-1.43l.71-.91V87a3.06 3.06.0 0 1-1.6 2.29zM74 88c-.13-.09-.11-.4.33-1.36A4.93 4.93.0 0 1 75.59 85a2.28 2.28.0 0 1-1.37 2.93L74 88z"/><path class="cls-6" d="M64 91.89a1.76 1.76.0 0 1-1.12.37 1.92 1.92.0 0 1-1.51-.7l-.12-.16A2.56 2.56.0 0 1 59 92.83a2.36 2.36.0 0 1-1.7-.6 4.82 4.82.0 0 1-1.06-1.71 7.85 7.85.0 0 1-7.45 6.15A7 7 0 0 1 47 96.45a3.14 3.14.0 0 1-1.84-1.75 5 5 0 0 1 .13-4.25c.9-2 3.64-3.78 5.5-4.8l-.86-.59c-2.61-1.8-5.85-4-6.49-7.31-.31-1.58.5-4.52 3.79-7.6a30.58 30.58.0 0 1 10.23-5.88 18.05 18.05.0 0 1 6-1.06c4.35.0 7.51 1.76 8.23 4.6 1.12 4.4-2.65 9.1-6.88 10.73a18.11 18.11.0 0 1-2.13.67 2 2 0 0 1 1.2.76 3 3 0 0 1 .57 1.68l.2.06a1.68 1.68.0 0 1 1 .83c.58-1.29 1.07-2.44 1.15-2.65a6.05 6.05.0 0 0 .2-.73 5.15 5.15.0 0 1 .16-.56c.26-.69 1.12-1 2.55-1 1.82.0 2 1.23 2 1.36a1.78 1.78.0 0 1-.15.71A9 9 0 0 0 71.15 81a3.53 3.53.0 0 0 0 .46 17.8 17.8.0 0 0 1.15-2.66 9.62 9.62.0 0 1 .4-1.42c.26-.68 1.12-1 2.54-1 1.83.0 2 1.23 2 1.36a1.78 1.78.0 0 1-.15.71 9 9 0 0 0-.36 1.28 3.38 3.38.0 0 0 0 1.1v.29a4.05 4.05.0 0 0 .33.81 9.47 9.47.0 0 1 3.33-.6 7.29 7.29.0 0 1 5.38 2.06A5.06 5.06.0 0 1 87.3 87a3.8 3.8.0 0 1-2.77 3.46h-.35a1.16 1.16.0 0 1-1.17-1 1.3 1.3.0 0 1 .77-1.36 1.46 1.46.0 0 0 .7-.93A1.72 1.72.0 0 0 84.06 86a4.18 4.18.0 0 0-2.94-1.35 9.42 9.42.0 0 0-1.06-.06 7 7 0 0 0-1.65.19 4.82 4.82.0 0 1 .11.85 4.07 4.07.0 0 1-2 3.44 6.36 6.36.0 0 1-1.7.87 3.41 3.41.0 0 1-1.26.29 2.29 2.29.0 0 1-.37.0A2 2 0 0 1 72 89.53a4.83 4.83.0 0 1-.86.83 6.34 6.34.0 0 1-1.59.83 6 6 0 0 1-1.81.41h-.33a2.21 2.21.0 0 1-1.37-.38 1.73 1.73.0 0 1-.65-1v.07l-.2.31A7.1 7.1.0 0 1 64 91.89zm-14.68.43a3.58 3.58.0 0 0 2.25-1.22 4.3 4.3.0 0 0 1.2-2.81 16.86 16.86.0 0 0-2.39 1.81 3.13 3.13.0 0 0-1.06 2.21zM68 85.07c-.31.7-.67 1.46-1 2.17h0l.69-.81.24-.29h0l.41-.53h0zm-7.62-.22c-.1.22-.19.44-.27.67v.11l.09-.23a2.86 2.86.0 0 0 .22-.55zm12.16.6A8.45 8.45.0 0 1 73.8 84c-.08-.16-.15-.31-.22-.47-.32.56-.7 1.16-1.1 1.76zM63.83 67.72a17.53 17.53.0 0 0-7.53 2c-5 2.51-7.65 5-7.79 7.52-.1 1.8 1.68 3.17 3.56 4.62A27.91 27.91.0 0 1 54.3 83.7l3.32-1.82a8 8 0 0 1 2.68-2.29c-.51.0-1 .07-1.35.07a9 9 0 0 1-2.69-.35 4.9 4.9.0 0 1-3-2.49c-.45-1.18.09-1.7.45-1.9a1.1 1.1.0 0 1 .58-.16 1.57 1.57.0 0 1 1.17.69 3.67 3.67.0 0 0 2.59.79q.39.0.78.0A10.8 10.8.0 0 0 67 71.45a2.93 2.93.0 0 0 .42-2.55C67.14 68.32 65.91 67.72 63.83 67.72z"/><path class="cls-3" d="M80.5 82.28a8.56 8.56.0 0 0-3.81.89 8.19 8.19.0 0 1-.85-2 5.15 5.15.0 0 1-.07-1.66 14.9 14.9.0 0 1 .53-1.76c0-.08-.09-.44-.94-.44s-1.57.16-1.66.39a7.48 7.48.0 0 0-.4 1.24 30.09 30.09.0 0 1-2.57 4.94 5 5 0 0 1-.56-1.43 5.15 5.15.0 0 1-.07-1.66A15.27 15.27.0 0 1 70.6 79c0-.08-.09-.44-.94-.44s-1.57.16-1.66.39-.18.75-.35 1.25-2.23 5.07-2.76 6.25c-.27.6-.51 1.09-.68 1.42h0v.06l-.23.44h0c-.11.21-.24.4-.3.4a2.64 2.64.0 0 1 0-1.31c.31-1.58 1-4.06 1-4.14s.14-.47-.48-.7a.76.76.0 0 0-.87.15s-.09.13-.09.13.67-2.78-1.27-2.78c-1.21.0-2.89 1.32-3.71 2.52l-2.82 1.54-1.36.75-.09-.1c-2.35-2.5-6.69-4.28-6.5-7.64.07-1.22.49-4.45 8.34-8.36 6.47-3.19 11.59-2.31 12.47-.38 1.27 2.79-2.75 8-9.42 8.73a5.19 5.19.0 0 1-4.21-1.05c-.33-.32-.4-.4-.53-.33s-.08.46.0.66a4 4 0 0 0 2.41 1.9 12.8 12.8.0 0 0 7.82-.77c4-1.56 7.2-5.92 6.27-9.55s-7.08-4.92-12.88-2.85a29 29 0 0 0-9.89 5.67c-3.2 3-3.71 5.59-3.5 6.68.75 3.87 6.07 6.38 8.21 8.25l-.29.16c-1.07.53-5.13 2.65-6.15 4.9-1.15 2.55.18 4.37 1.07 4.62a6.56 6.56.0 0 0 7.09-2.88 7.11 7.11.0 0 0 .63-6.53h0l.84-.49c.54-.32 1.08-.62 1.54-.87a10.32 10.32.0 0 0-.6 2.75 5.79 5.79.0 0 0 1.25 4 1.41 1.41.0 0 0 1 .33c.9.0 1.31-.75 1.77-1.64a21.16 21.16.0 0 0 1-2.36s-.62 3.42 1.07 3.42c.61.0 1.23-.8 1.51-1.2h0v-.08l.1-.16h0c.25-.43.79-1.41 1.62-3 1.06-2.08 2.08-4.69 2.08-4.69a14.29 14.29.0 0 0 .4 1.69 16.87 16.87.0 0 0 .88 2l-.4.54h0c-.2.26-.42.54-.65.82a22.71 22.71.0 0 0-2 2.47.67.67.0 0 0 .18.9 1.66 1.66.0 0 0 1 .17 4.79 4.79.0 0 0 1.54-.35 5.64 5.64.0 0 0 1.33-.7A3 3 0 0 0 71.66 87a5.38 5.38.0 0 0-.48-1.85l.22-.33a36 36 0 0 0 2.3-4 22.83 22.83.0 0 0 1.35 3.4 7.11 7.11.0 0 0-2.24 2.9c-.49 1.4-.11 2 .61 2.17a2.28 2.28.0 0 0 1.12-.23A5.31 5.31.0 0 0 76 88.33a3.19 3.19.0 0 0 1.56-2.6 4.79 4.79.0 0 0-.35-1.54 8 8 0 0 1 4.07-.47c3.65.43 4.37 2.71 4.23 3.66A2.43 2.43.0 0 1 84.3 89c-.26.16-.33.21-.31.33s.15.16.37.13a2.85 2.85.0 0 0 2-2.54C86.44 84.71 84.3 82.26 80.5 82.28zM52.3 91.77c-1.21 1.32-2.9 1.82-3.63 1.4s-.47-2.4 1-3.8a18.33 18.33.0 0 1 2.85-2.12l.75-.45h.08l.19-.11A5.25 5.25.0 0 1 52.3 91.77zm8.82-6c-.42 1-1.3 3.66-1.84 3.52s-.74-2.12-.09-4.09a9.11 9.11.0 0 1 1.44-2.63c.66-.74 1.39-1 1.56-.68s-.78 3.24-1 3.89zm7.28 3.48c-.18.09-.34.15-.42.11s.07-.16.07-.16.91-1 1.27-1.43l.71-.91V87a3.06 3.06.0 0 1-1.6 2.29zM74 88c-.13-.09-.11-.4.33-1.36A4.93 4.93.0 0 1 75.59 85a2.28 2.28.0 0 1-1.37 2.93L74 88z"/><path class="cls-2" d="M57.3 66.34C67.67 63.42 70.6 68 70.6 68a4.21 4.21.0 0 0-1.84-2.47c-2.45-1.65-6.84-1.88-11-.39a29 29 0 0 0-9.89 5.67 13.76 13.76.0 0 0-1.24 1.29S52.35 67.75 57.3 66.34z"/><circle class="cls-6" cx="90.19" cy="10.06" r="1.04"/><circle class="cls-6" cx="15.91" cy="27.85" r="1.04"/><circle class="cls-6" cx="64.82" cy="13.82" r="1.68"/><circle class="cls-6" cx="17.59" cy="60.66" r="1.68"/><circle class="cls-6" cx="111.27" cy="60.66" r="1.68"/><g class="cls-7"><path class="cls-4" d="M4.96 38.65h5.46z"/><path class="cls-4" d="M7.69 41.38V35.92z"/><path class="cls-4" d="M117.91 78.03H123.37z"/><path class="cls-4" d="M120.64 80.76V75.3z"/><path class="cls-4" d="M45.43 1.65v1.4z"/><path class="cls-4" d="M45.43 6.63V8.03z"/><path class="cls-4" d="M48.68 4.9H47.28z"/><path class="cls-4" d="M43.67 4.9H42.26z"/><path class="cls-4" d="M47.77 2.55 46.78 3.55z"/><path class="cls-4" d="M47.77 7.13 46.78 6.13z"/><path class="cls-4" d="M43.07 2.55 44.06 3.55z"/><path class="cls-4" d="M43.07 7.13 44.06 6.13z"/><circle class="cls-4" cx="98.88" cy="9.2" r="2.1"/></g><path class="cls-8" d="M98.22 17.92H103.68z"/><path class="cls-8" d="M100.95 20.66V15.19z"/><path class="cls-8" d="M122.12 64.44V65.57z"/><path class="cls-8" d="M122.12 68.46V69.6z"/><path class="cls-8" d="M124.75 67.07H123.62z"/><path class="cls-8" d="M120.7 67.07H119.57z"/><path class="cls-8" d="M124.02 65.17 123.21 65.98z"/><path class="cls-8" d="M124.02 68.86 123.21 68.06z"/><path class="cls-8" d="M120.22 65.17 121.02 65.98z"/><path class="cls-8" d="M120.22 68.86 121.02 68.06z"/><circle class="cls-8" cx="2.85" cy="29.95" r="2.1"/><path class="cls-9" d="M17.75 53.34a46.87 46.87.0 0 1 38.59-38.9"/><path class="cls-9" d="M110.24 68.28a46.85 46.85.0 0 1-92.61-1"/><path class="cls-9" d="M71.55 14.42A46.86 46.86.0 0 1 110.36 53.8"/></g></svg>