<svg xmlns="http://www.w3.org/2000/svg" viewBox="0 0 125 108"><defs><style>.cls-1{fill:#71a8e6;opacity:.5}.cls-2{fill:#fff}.cls-3{fill:#93c6f9;opacity:.9}.cls-10,.cls-13,.cls-14,.cls-4,.cls-5,.cls-8,.cls-9{fill:none}.cls-10,.cls-14,.cls-4,.cls-8{stroke:#4a8cdd}.cls-10,.cls-4,.cls-5,.cls-8,.cls-9{stroke-linecap:round}.cls-4,.cls-5{stroke-linejoin:round}.cls-5{stroke:#5e93d3}.cls-6{fill:#4a8cdd}.cls-7{opacity:.7}.cls-10,.cls-14,.cls-8,.cls-9{stroke-miterlimit:10}.cls-8,.cls-9{stroke-width:.8px}.cls-9{stroke:#d1e4fc}.cls-11{fill:#fcfcfc}.cls-12{fill:#92b6ef}.cls-15{fill:#dbf4b0}</style></defs><g id="Language_Icons" data-name="Language Icons"><circle class="cls-1" cx="63.88" cy="60.66" r="46.84"/><path class="cls-2" d="M94 41.39H35A1.65 1.65.0 0 0 33.38 43v53a46.67 46.67.0 0 0 30.08 11C75.91 107 87 102.9 95.41 95L95.61 43A1.65 1.65.0 0 0 94 41.39z"/><path class="cls-3" d="M33.75 41.92h61.66v10.94H33.75z"/><path class="cls-4" d="M34.04 52.85H93.24z"/><path class="cls-4" d="M94 41.39H35A1.65 1.65.0 0 0 33.38 43v53a46.67 46.67.0 0 0 30.08 11c12.45.0 23.76-4.11 32.15-12V43A1.65 1.65.0 0 0 94 41.39z"/><path class="cls-5" d="M37.52 45.27 39.36 47.18 37.52 49.02"/><path class="cls-5" d="M39.95 49.59H42.69z"/><circle class="cls-6" cx="89.64" cy="10.07" r="1.04"/><circle class="cls-6" cx="15.35" cy="27.86" r="1.04"/><circle class="cls-6" cx="64.27" cy="13.82" r="1.68"/><circle class="cls-6" cx="17.03" cy="60.67" r="1.68"/><circle class="cls-6" cx="110.71" cy="60.67" r="1.68"/><g class="cls-7"><path class="cls-8" d="M4.91 38.65H10.37z"/><path class="cls-8" d="M7.64 41.38V35.92z"/><path class="cls-8" d="M117.86 78.03H123.32z"/><path class="cls-8" d="M120.59 80.76V75.3z"/><path class="cls-8" d="M45.38 1.65v1.4z"/><path class="cls-8" d="M45.38 6.63V8.03z"/><path class="cls-8" d="M48.63 4.9H47.23z"/><path class="cls-8" d="M43.62 4.9H42.21z"/><path class="cls-8" d="M47.72 2.55 46.73 3.55z"/><path class="cls-8" d="M47.72 7.13 46.73 6.13z"/><path class="cls-8" d="M43.02 2.55 44.01 3.55z"/><path class="cls-8" d="M43.02 7.13 44.01 6.13z"/><circle class="cls-8" cx="98.83" cy="9.2" r="2.1"/></g><path class="cls-9" d="M98.17 17.92H103.63z"/><path class="cls-9" d="M100.9 20.66V15.19z"/><path class="cls-9" d="M122.07 64.44V65.57z"/><path class="cls-9" d="M122.07 68.46V69.6z"/><path class="cls-9" d="M124.7 67.07H123.57z"/><path class="cls-9" d="M120.65 67.07H119.52z"/><path class="cls-9" d="M123.97 65.17 123.16 65.98z"/><path class="cls-9" d="M123.97 68.86 123.16 68.06z"/><path class="cls-9" d="M120.17 65.17 120.97 65.98z"/><path class="cls-9" d="M120.17 68.86 120.97 68.06z"/><circle class="cls-9" cx="2.8" cy="29.95" r="2.1"/><path class="cls-10" d="M17.61 53.34A46.87 46.87.0 0 1 56.2 14.44"/><path class="cls-10" d="M71.41 14.42A46.87 46.87.0 0 1 110.22 53.8"/><path class="cls-10" d="M110.1 68.28a46.85 46.85.0 0 1-92.61-1"/><path class="cls-11" d="M47.54 64.19H79.88V73.56H47.54"/><path class="cls-11" d="M47.54 73.58c0 .93 7.24 1.68 16.17 1.68s16.16-.75 16.16-1.68V64.19"/><ellipse class="cls-11" cx="63.71" cy="64.19" rx="16.17" ry="1.68"/><path class="cls-11" d="M47.54 74.6H79.88V83.97H47.54"/><path class="cls-11" d="M47.54 84c0 .93 7.24 1.68 16.17 1.68S79.87 84.92 79.87 84V74.6"/><ellipse class="cls-11" cx="63.71" cy="74.6" rx="16.17" ry="1.68"/><path class="cls-12" d="M49.2 65.56H79.88V74.72H49.2"/><path class="cls-12" d="M49.2 74.74c0 .91 6.87 1.64 15.34 1.64s15.33-.73 15.33-1.64V65.55"/><ellipse class="cls-12" cx="64.54" cy="65.55" rx="15.34" ry="1.65"/><path class="cls-12" d="M49.2 76.03H79.88V85.2H49.2"/><path class="cls-12" d="M49.2 85.22c0 .91 6.87 1.64 15.34 1.64s15.33-.73 15.33-1.64V76"/><ellipse class="cls-12" cx="64.54" cy="76.03" rx="15.34" ry="1.65"/><path class="cls-12" d="M49.2 86.56H79.88V95.72H49.2"/><path class="cls-12" d="M49.2 95.74c0 .91 6.87 1.65 15.34 1.65s15.33-.74 15.33-1.65V86.56"/><ellipse class="cls-12" cx="64.54" cy="86.56" rx="15.34" ry="1.65"/><path class="cls-13" d="M47.54 85.38H79.88v9.36H47.54"/><path class="cls-14" d="M47.54 85.38v9.38c0 .93 7.24 1.69 16.17 1.69s16.16-.76 16.16-1.69V85.38"/><path class="cls-14" d="M78.21 84.63c1.06.23 1.66.48 1.66.75.0.93-7.23 1.68-16.16 1.68s-16.17-.75-16.17-1.68c0-.22.42-.44 1.17-.63"/><path class="cls-13" d="M47.54 74.62H79.88v9.36H47.54"/><path class="cls-14" d="M47.54 74.62V84c0 .93 7.24 1.68 16.17 1.68S79.87 84.94 79.87 84V74.62"/><path class="cls-14" d="M78.27 73.89c1 .22 1.6.47 1.6.73.0.93-7.23 1.68-16.16 1.68s-16.17-.75-16.17-1.68c0-.23.43-.44 1.2-.64"/><path class="cls-13" d="M47.54 63.91H79.88V73.28H47.54"/><path class="cls-14" d="M79.87 63.91V73.3c0 .93-7.23 1.68-16.16 1.68s-16.17-.75-16.17-1.68V63.91"/><ellipse class="cls-14" cx="63.71" cy="63.91" rx="16.17" ry="1.68"/><ellipse class="cls-15" cx="51.23" cy="67.47" rx=".83" ry="1"/><ellipse class="cls-15" cx="51.23" cy="71.39" rx=".83" ry="1"/><ellipse class="cls-15" cx="51.23" cy="67.47" rx=".83" ry="1"/><ellipse class="cls-15" cx="51.23" cy="71.39" rx=".83" ry="1"/><ellipse class="cls-15" cx="51.23" cy="78.66" rx=".83" ry="1"/><ellipse class="cls-15" cx="51.23" cy="82.57" rx=".83" ry="1"/><ellipse class="cls-15" cx="51.23" cy="89.23" rx=".83" ry="1"/><ellipse class="cls-15" cx="51.23" cy="93.14" rx=".83" ry="1"/></g></svg>